<?xml version="1.0" standalone="no"?>
<!DOCTYPE svg PUBLIC "-//W3C//DTD SVG 1.1//EN" "http://www.w3.org/Graphics/SVG/1.1/DTD/svg11.dtd" >
<svg xmlns="http://www.w3.org/2000/svg" xmlns:xlink="http://www.w3.org/1999/xlink" version="1.1">
<metadata>
Created by FontForge 20200511 at Thu Jan  1 00:00:00 1970
 By convertio
</metadata>
<defs>
<font id="uicons-brands" horiz-adv-x="300" >
  <font-face 
    font-family="uicons-brands"
    font-weight="400"
    font-stretch="normal"
    units-per-em="300"
    panose-1="2 0 5 3 0 0 0 0 0 0"
    ascent="300"
    descent="0"
    bbox="-0.347826 -0.384615 300.333 300.281"
    underline-thickness="0"
    underline-position="3"
    unicode-range="U+E00C-F19D"
  />
    <missing-glyph />
    <glyph glyph-name=".notdef" horiz-adv-x="0" 
 />
    <glyph glyph-name="fi-brands-3m" unicode="&#xe00c;" 
d="M236 225l-21 -88l-22 88h-64v-32q-5 19 -23 28q-14 7 -37 8q-26 0 -42 -11q-20 -14 -21 -42h42q0 9 6 14t14 5q19 0 19 -14q0 -6 -4.5 -9.5t-14.5 -3.5h-14v-29h13q6 0 11.5 -3.5t6 -11.5t-5 -13t-13.5 -5q-13 1 -18 10q-4 6 -4 18h-44v-1q0 -21 9 -35q16 -27 58 -27
q24 0 40.5 9t21.5 24v-29h43v95l24 -95h38l23 95v-96h43v151h-64zM129 137q-3 8 -8 12t-9 6q7 3 11 7.5t6 12.5v-38z" />
    <glyph glyph-name="fi-brands-500px" unicode="&#xe012;" 
d="M74 103q1 -3 3 -7q7 -17 20.5 -31t31.5 -21.5t38 -7.5t38 7.5t31.5 21.5t21 32t7.5 37.5t-7.5 37.5t-21 32t-31.5 21.5t-38 7.5t-39 -8q-7 -3 -17.5 -10t-17.5 -14v0v81h136q5 0 5 9t-5 9h-147q-3 0 -4.5 -2t-1.5 -4v-114q0 -3 2.5 -5t7 -3t7 0.5t4.5 3.5v1q2 3 8 9l5 5
q11 11 26 17.5t31 6.5t30.5 -6.5t26 -17.5t17.5 -25.5t6 -31t-6 -31t-17 -25.5t-26 -17.5t-31 -6.5q-23 0 -41 12v69q0 14 11.5 27t29 13t29.5 -12t12 -29t-12 -29t-30 -12q-4 0 -12 2q-5 2 -8 -7v0q-1 -5 0 -7.5t2 -2.5q9 -3 19 -3q16 0 29.5 8t21.5 21.5t8 30t-8 30
t-21.5 21.5t-29.5 8q-25 0 -42 -18q-8 -8 -12.5 -18t-4.5 -20v-58v0q-10 11 -17 28q-1 3 -3 3.5t-7 -1.5q-8 -2 -7 -7v0zM144 119q0 -2 3 -5v0q3 -3 5 -3t3 1l11 11l10 -10q2 -2 4 -2t5 3q4 5 1 8l-11 11l11 11q3 3 -1.5 7.5t-7.5 2.5l-11 -11l-11 11h-3t-5 -2q-4 -5 -2 -8
l11 -11l-11 -11q-1 -1 -1 -3zM168 268q-28 0 -50 -10q-2 -1 -2.5 -3t1.5 -6q3 -8 7 -7q22 9 44 9q24 0 46 -10q17 -7 35 -22q1 -1 3 -1t5.5 3.5t4 6t-1.5 4.5q-17 16 -39 25q-25 11 -53 11zM263 51v0q-4 3 -6 3.5t-4 -1.5l-1 -1q-16 -16 -38 -25t-46 -9t-45.5 9t-38.5 26
t-25 37q-6 13 -8 27v1q-1 2 -3 3t-7 0q-8 -1 -8 -6v0q3 -17 9 -32q11 -24 29.5 -43t43.5 -29.5t53 -10.5t53 10.5t43 29.5l2 1q3 4 -3 10z" />
    <glyph glyph-name="fi-brands-abbot-laboratories" unicode="&#xe01d;" 
d="M260 270h-260v-40h247q6 0 9.5 -4t3.5 -9v-134q0 -6 -4 -9.5t-9 -3.5h-194q-5 0 -9 3.5t-4 9.5v54q0 5 4 9t9 4h167v40h-180q-17 0 -28.5 -11.5t-11.5 -28.5v-80q0 -17 11.5 -28.5t28.5 -11.5h220q17 0 28.5 11.5t11.5 28.5v160q0 17 -11.5 28.5t-28.5 11.5z" />
    <glyph glyph-name="fi-brands-accusoft" unicode="&#xe020;" 
d="M226 96q-1 1 -42 53l-71 90q-3 5 -2 6.5t3 1.5h63q8 0 12 -1v0q3 0 6 -4l97 -117l4 -5q1 -2 1 -3.5t-1 -2.5l-56 -23q-4 -1 -6.5 -1t-7.5 6zM280 98h4l14 -3l1 -1l1 -1q0 -1 -2.5 -2.5t-58.5 -35.5q-2 -2 -6 -2.5t-16 2.5l-148 33q-2 0 -2 1.5t5 2.5l71 27q3 1 6 1t16 -2
l16 -2l26 -35q7 -8 12 -8q2 0 6 1zM127 183q12 -15 24 -31v0l-42 -39l-45 -17q-2 -1 -2 -3l1 -13l-55 -18q-7 -2 -8 -1.5t1 2.5l114 113q6 7 12 7v0z" />
    <glyph glyph-name="fi-brands-acrobat" unicode="&#xe022;" 
d="M103 103q-10 -16 -18.5 -25t-14.5 -9q-3 0 -4 1q-2 4 -1 6q1 5 11 12.5t27 14.5zM139 189q-5 14 -5.5 25t1.5 16q2 3 5 3q6 0 6 -11q-2 -20 -7 -33zM147 154q4 -7 14 -19l2 -3q-1 0 -10.5 -2.5t-18.5 -5.5q6 10 13 30zM164 132v0v0zM226 118q-1 -3 -4.5 -5t-9.5 -1
q-16 5 -27 14q21 3 34 1q3 -1 5.5 -3t1.5 -6zM247 296h-194q-22 0 -37.5 -15.5t-15.5 -37.5v-186q0 -22 15.5 -37.5t37.5 -15.5h194q22 0 37.5 15.5t15.5 37.5v186q0 22 -15.5 37.5t-37.5 15.5zM242 112q-4 -10 -19 -10q-25 0 -49 22q-19 -3 -47 -13q-29 -51 -53 -51
q-8 0 -13 5q-3 2 -4 5.5t-1 7.5q2 11 21 23q13 8 30 14q13 24 26 62q-8 17 -10 32.5t3 23.5t14.5 8t14.5 -8t5 -20q0 -19 -9 -45l2 -2q13 -20 25 -31h3q18 2 29 2q21 -1 29 -10q3 -3 4 -7t-1 -8z" />
    <glyph glyph-name="fi-brands-adobe" unicode="&#xe031;" 
d="M189 283h111v-266zM111 283h-111v-266zM150 185l71 -168h-47l-21 54h-51z" />
    <glyph glyph-name="fi-brands-aecom" unicode="&#xe035;" 
d="M299 183l1 -66h-16v39l-19 -39h-8l-7 39l-11 -39h-16l20 66h15l7 -37l19 37h15zM201 184q13 -1 20.5 -10.5t6 -24t-12 -24t-23.5 -9t-20.5 10.5t-6 24.5t12 24t23.5 8.5zM212 148q2 8 -1 14t-9.5 7.5t-12 -3.5t-7.5 -13.5t1 -14.5t9.5 -7t12 3.5t7.5 13.5zM169 179
l-3 -16q-6 5 -14.5 5t-14.5 -5t-6 -13.5t4.5 -13t13 -4.5t13.5 2l-2 -16q-6 -2 -15 -2q-14 0 -22 9t-7.5 23.5t10.5 25t24 10.5q10 0 19 -5zM119 183l-2 -15h-46l2 15h46zM112 133l-3 -16h-45l2 16h46zM110 158l-2 -16h-41l3 16h40zM48 183l15 -66h-15l-3 13h-23l-6 -13h-16
l31 66h17zM42 145l-5 22l-9 -22h14z" />
    <glyph glyph-name="fi-brands-aero" unicode="&#xe036;" 
d="M112 198l16 -52h-32zM247 296h-194q-22 0 -37.5 -15.5t-15.5 -37.5v-186q0 -22 15.5 -37.5t37.5 -15.5h194q22 0 37.5 15.5t15.5 37.5v186q0 22 -15.5 37.5t-37.5 15.5zM173 90h-26q-1 0 -2 1l-10 30h-46l-10 -29q0 -2 -2 -2h-24q-2 0 -1 2l41 120q1 4 1 8q0 1 1 1h32
q2 0 2 -1l46 -128q0 -2 -2 -2zM247 190v-25q0 -1 -2 -1q-6 0 -12 -1t-11 -3.5t-7 -4.5v-63q0 -2 -2 -2h-23q-2 0 -2 2v78l-1 19q-1 1 0 1h23q2 0 2 -2l2 -3v-9q6 7 14 11.5t18 4.5q1 0 1 -2v0z" />
    <glyph glyph-name="fi-brands-after-effects" unicode="&#xe037;" 
d="M97 198l16 -52h-32zM247 296h-194q-22 0 -37.5 -15.5t-15.5 -37.5v-186q0 -22 15.5 -37.5t37.5 -15.5h194q22 0 37.5 15.5t15.5 37.5v186q0 22 -15.5 37.5t-37.5 15.5zM159 90h-26q-2 0 -2 1l-10 30h-47l-9 -29q-1 -2 -3 -2h-23q-2 0 -2 2l42 120v8q0 1 2 1h32q1 0 1 -1
l46 -128q1 -2 -1 -2zM257 140q0 -3 -0.5 -5t-1.5 -2l-12 -1l-48 1q0 -6 3.5 -11.5t10 -8t14 -2.5t13.5 1t12 3q1 1 1 -1l-1 -20v-1q-7 -3 -13 -4q-9 -2 -18 -2q-26 0 -39 17q-12 13 -12 34.5t13 37t36 15.5q10 0 18.5 -3.5t14.5 -10.5q9 -12 9 -29v-8zM214 169
q-5 1 -9.5 -1.5t-7 -7t-2.5 -9.5h33q2 0 3 1v1q0 3 -1 5q-1 5 -6 8.5t-10 2.5z" />
    <glyph glyph-name="fi-brands-airbnb" unicode="&#xe049;" 
d="M285 87q0 1 -1 4l-10 22q-31 67 -67 136l-8 17q-6 10 -11 15q-7 9 -17 14t-21 5q-22 0 -38 -18q-5 -6 -11 -17l-8 -15q-38 -74 -66 -136l-12 -27q-6 -16 -3.5 -32.5t13 -30t25.5 -19.5q12 -5 25 -5l7 1q16 1 30 10q18 10 38 31q19 -21 37 -31q14 -9 30 -10l8 -1
q13 0 24 5q16 6 26.5 19.5t13.5 29t-4 33.5zM150 71q-25 32 -30 56q-3 10 -1.5 17.5t5.5 13.5t11 9.5t15 3.5t15 -3.5t11 -9.5t5.5 -13.5t-1.5 -17.5q-5 -24 -30 -56zM270 57q-2 -12 -9 -21.5t-18 -13.5t-23 -3t-23 8q-16 8 -34 29q29 36 36 66q3 13 1.5 25t-8.5 21.5
t-18 15t-24 5.5t-24 -5.5t-18 -15t-8.5 -21.5t1.5 -25q7 -30 36 -66q-17 -20 -34 -30q-11 -6 -22.5 -7.5t-23 3t-18.5 14t-8.5 21.5t2.5 23l11 25q33 72 66 135l8 16q4 8 9 13q9 11 23.5 11t24.5 -11q4 -5 8 -13l8 -16q34 -65 66 -135l11 -25q3 -12 2 -23z" />
    <glyph glyph-name="fi-brands-algolia" unicode="&#xe055;" 
d="M153 199q-16 0 -29.5 -8t-21.5 -21.5t-8 -30t8 -30t21.5 -21.5t30 -8t30 8t21.5 21.5t8 30t-8 30t-21.5 21.5t-30.5 8zM196 161l-40 -20q-1 -1 -2 -0.5t-1 1.5v45q0 2 2 2q13 -1 24 -7.5t17 -17.5q1 -2 0 -3zM153 199q-16 0 -29.5 -8t-21.5 -21.5t-8 -30t8 -30
t21.5 -21.5t30 -8t30 8t21.5 21.5t8 30t-8 30t-21.5 21.5t-30.5 8zM196 161l-40 -20q-1 -1 -2 -0.5t-1 1.5v45q0 2 2 2q13 -1 24 -7.5t17 -17.5q1 -2 0 -3zM261 300h-221q-17 0 -28.5 -11.5t-11.5 -27.5v-222q0 -16 11.5 -27.5t28.5 -11.5h221q16 0 27.5 11.5t11.5 27.5v222
q0 16 -11.5 27.5t-27.5 11.5zM125 243q0 6 3.5 9.5t9.5 3.5h30q6 0 9.5 -3.5t3.5 -9.5v-10q0 -1 -0.5 -1.5t-1.5 -0.5q-12 4 -25.5 4t-26.5 -4q-1 0 -1.5 0.5t-0.5 1.5v10zM68 200q-4 4 -4 9.5t4 9.5l6 6v0q4 4 9.5 4t9.5 -4l5 -5q1 -2 0 -3q-6 -5 -11.5 -10.5t-10.5 -11.5
q-1 -1 -3 0zM153 55q-23 0 -42.5 11t-30.5 30.5t-11 42.5t11 42.5t30.5 31t43 11.5t43 -11.5t30.5 -30.5t11 -42.5t-11.5 -43t-30.5 -30.5t-43 -11zM153 199q-16 0 -29.5 -8t-21.5 -21.5t-8 -30t8 -30t21.5 -21.5t30 -8t30 8t21.5 21.5t8 30t-8 30t-21.5 21.5t-30.5 8z
M196 161l-40 -20q-1 -1 -2 -0.5t-1 1.5v45q0 2 2 2q13 -1 24 -7.5t17 -17.5q1 -2 0 -3z" />
    <glyph glyph-name="fi-brands-amd" unicode="&#xe060;" 
d="M218 218h-134l-81 82h297v-297l-82 81v134zM84 84v118l-84 -84v-118h118l84 84h-118z" />
    <glyph glyph-name="fi-brands-american-express" unicode="&#xe061;" 
d="M154 240h-29l-37 -84h25l7 16h38l8 -16h25zM128 191l11 28l12 -28h-23zM191 79v-19h-71v84h71v-20h-48v-13h47v-19h-47v-13h48zM260 102l40 -42h-30l-25 27l-24 -27h-30l40 42l-40 42h30l25 -27l24 27h30zM277 102l23 24v-49zM265 240h35v-84h-23v59l-21 -59h-20l-22 58
v-58h-23v84h36l19 -53zM300 300v-48h-44l-10 -28l-10 28h-57v-37l-17 37h-46l-47 -108h38v-96h119l19 20l19 -20h36v-48h-300v300h300z" />
    <glyph glyph-name="fi-brands-android" unicode="&#xe06b;" 
d="M219 108q-5 0 -8.5 4t-3.5 9t3.5 8.5t8.5 3.5t9 -3.5t4 -8.5t-4 -9t-9 -4zM81 108q-5 0 -9 4t-4 9t4 8.5t9 3.5t8.5 -3.5t3.5 -8.5t-3.5 -9t-8.5 -4zM224 183l24 44q2 2 1 4t-2.5 3t-3.5 0.5t-4 -2.5v0l-25 -44q-30 14 -64 14t-64 -14l-25 44q-2 2 -4 2.5t-3.5 -0.5
t-2.5 -3t1 -4l24 -44q-32 -17 -52.5 -48t-23.5 -70h300q-3 39 -23.5 70t-52.5 48z" />
    <glyph glyph-name="fi-brands-animate" unicode="&#xe087;" 
d="M98 198l16 -52h-32zM247 296h-194q-22 0 -37.5 -15.5t-15.5 -37.5v-186q0 -22 15.5 -37.5t37.5 -15.5h194q22 0 37.5 15.5t15.5 37.5v186q0 22 -15.5 37.5t-37.5 15.5zM160 90h-26q-2 0 -2 2l-11 29h-46l-10 -29q0 -2 -2 -2h-24q-2 0 -1 2l42 120v8q0 1 1 1h33q1 0 1 -1
l46 -128q0 -2 -1 -2zM262 92q0 -2 -1 -2h-24q-2 0 -2 2v56q0 6 -2 10.5t-5.5 7t-8.5 1.5q-10 0 -17 -6v-69q0 -2 -1 -2h-24q-2 0 -2 2v82l-1 14q0 1 1 2h1h20h2q1 -1 1 -2l2 -7q5 5 12.5 8t14.5 3t13 -2.5t11 -7t7.5 -11.5t2.5 -20v-59z" />
    <glyph glyph-name="fi-brands-app-store-ios" unicode="&#xe091;" 
d="M239 300h-178q-17 0 -31 -8t-22 -22t-8 -31v-178q0 -17 8 -31t22 -22t31 -8h178q17 0 31 8t22 22t8 31v178q0 17 -8 31t-22 22t-31 8zM83 62q-3 -4 -8.5 -5.5t-10.5 1t-6.5 8t1.5 10.5l10 17q16 5 27 -8zM178 99h-124q-6 0 -10 4t-4 10t4 10t10 4h34l45 77l-14 24
q-3 5 -1.5 10.5t6.5 8t10.5 1.5t8.5 -6l6 -11l6 11q3 4 8.5 5.5t10 -1t6 -8t-1.5 -10.5l-58 -101h42q10 0 15 -9.5t1 -18.5zM245 99h-20l13 -23q3 -5 1.5 -10.5t-6.5 -8t-10.5 -1t-8.5 5.5l-50 88q-8 13 -5 28q3 12 10 18l40 -69h36q5 0 9 -4t4 -10t-4 -10t-9 -4z" />
    <glyph glyph-name="fi-brands-apple-pay" unicode="&#xe096;" 
d="M57 197q6 8 5 17q-4 -1 -8 -3t-7 -5q-7 -8 -6 -16q5 0 9 2t7 5v0zM62 189q-5 0 -14 -3q-4 -2 -5.5 -2t-6.5 2q-7 3 -11 3q-6 -1 -11.5 -4t-9.5 -9q-6 -11 -3.5 -26t10.5 -26q4 -6 7.5 -9.5t7.5 -3.5t8.5 2t9 2t9 -2t8.5 -2t7.5 3.5t8 10t6.5 13.5v1q-4 1 -7 5q-6 6 -6 15
q-1 12 10 20h1q-7 9 -19 10v0zM135 206q14 0 22.5 -8.5t8.5 -22t-8.5 -22.5t-22.5 -9h-20v-32h-15v94h35zM115 157h16q10 0 15 4.5t5 13.5t-5 14t-15 5h-16v-37zM170 132q0 9 7 14t19 6l19 1v5q0 6 -4 9.5t-10 3.5t-10 -3t-5 -7h-13q1 9 8.5 15t20 6t20 -6t7.5 -17v-47h-14
v11v0q-3 -5 -9 -8.5t-13 -3.5q-10 0 -16.5 5.5t-6.5 15.5zM215 138v5l-17 -1q-14 -1 -14 -10q0 -5 3.5 -7.5t10 -2.5t12 4.5t5.5 11.5zM242 87v11h4q5 0 8 2t4 8l2 4l-25 69h15l17 -56l18 56h15l-26 -73q-4 -12 -10 -17t-17 -5z" />
    <glyph glyph-name="fi-brands-apple" unicode="&#xe092;" 
d="M232 140q0 18 8.5 33t23.5 25q-9 13 -23.5 21t-31.5 8q-9 1 -20 -2q-7 -1 -19.5 -6t-17.5 -5t-19 5q-9 4 -15 5q-8 3 -16 3q-19 -1 -35.5 -11t-25.5 -27q-13 -22 -13 -51q0 -26 9 -55q9 -25 22 -44t21 -27q14 -12 27 -12q8 0 21 6q8 3 12 4q8 2 16 2t15 -2q4 -1 11 -4
t11 -4q6 -2 12 -2q14 1 26 12q8 7 20 25q14 20 21 43q-18 8 -29 24.5t-11 35.5zM194 252q9 10 13 22.5t3 25.5q-27 -3 -45 -23q-8 -9 -12 -21t-3 -25q13 0 24.5 5.5t19.5 15.5z" />
    <glyph glyph-name="fi-brands-artstation" unicode="&#xe106;" 
d="M0 78l25 -43v0q4 -8 11.5 -12.5t15.5 -4.5h169l-35 60h-186zM300 78q0 9 -5 17l-98 171q-4 7 -11.5 11.5t-15.5 4.5h-52l152 -264l24 42q4 6 5 9.5t1 8.5zM161 121l-68 118l-68 -118h136z" />
    <glyph glyph-name="fi-brands-astrazeneca" unicode="&#xe10e;" 
d="M85 116q23 -12 36 -19l26 -15l-27 -21q-4 -3 -10 -9q-7 -7 -11.5 -14t-6 -14.5t2 -12.5t10.5 -8q5 -2 13 -3t23 2h2q20 3 48 11q16 4 32 11q4 2 7.5 5t2.5 8t-9 9l-34 21l36 24q15 11 27 22q7 7 11.5 14.5t3.5 15.5q-2 16 -27 27l-15 7l-37 13v20q0 18 -1 31q-1 10 -3 21
v1q-2 15 -5 22q-6 13 -17 15q-13 2 -27 -12q-12 -11 -22 -22q-17 -16 -46 -54l-7 -9q-4 -6 -13 -19l-3 -5q-4 -5 -10 -17q-3 -6 -3 -12q0 -2 3.5 -5.5t11.5 -7.5zM120 224q12 13 20 21l1 1q7 7 10.5 5t4.5 -15l3 -38l-24 6l-23 4h-7zM105 194v0l56 -24l2 -43q0 -6 -3 -8
q-5 -3 -15 7l-5 6l-9 11l-17 26l-7 14l-2 6l-1 3zM191 56l1 -1q13 -8 19 -13l4 -4h-1l-73 -6l8 7l11 7l22 16zM222 135q0 -2 -3 -4l-6 -5l-19 -13l-40 -26l-70 41l-21 12l-6 4q-5 3 -5 5.5t2 6.5l38 39l3 -8l13 -23q6 -9 17 -26l9 -11q4 -6 7.5 -9.5t8.5 -7.5q8 -6 15 -6
q3 0 6 1q7 3 10.5 14t4.5 18l2 21l15 -7l14 -8q5 -3 5 -7v-1z" />
    <glyph glyph-name="fi-brands-asus" unicode="&#xe10f;" 
d="M287 172q0 3 2 4.5t4.5 1.5t4 -1.5t1.5 -4t-1.5 -4.5t-4 -2t-4.5 2t-2 4zM287 172q0 -3 2 -4.5t4.5 -1.5t4.5 2t2 4.5t-2 4.5t-4.5 2t-4.5 -2t-2 -5zM291 168h1v3h3v-2l2 -1l-1 3l-1 1l1 1v1q0 1 -1 1l-4 1v-8zM292 172v3h3v-1v-1zM27 163l-27 -43h19l26 41zM139 164v16
h-53q-7 -1 -12 -6l-1 -1q-1 -1 -2 -5l-1 -3v15h-29q-3 0 -5 -3l-8 -13h111zM282 164v16h-56q-7 -1 -13 -6v-1q-1 -1 -3 -5l-1 -4h73zM157 180h-15v-16h15v16zM209 180h-16v-16h16v16zM209 158l-15 1v-18l-1 -3q-1 -2 -4 -2h-27h-2q-3 2 -3 5v21l-15 1v-28q1 -9 8 -12
q3 -2 6 -3h38l4 1q5 2 8 5.5t3 9.5v22zM53 120h74q8 2 12 8q2 4 2 7l1 6q-1 3 -5 8t-10 6l-57 4q1 -6 5 -9t9 -4l40 -4q3 0 3 -3t-3 -3h-55v23l-15 1q-1 0 -1 -20v-20zM209 120h57q6 1 9.5 4t5.5 7l1 4q1 3 0 6v0q0 4 -4 8.5t-10 5.5l-58 3q2 -5 5 -8h1q2 -2 5 -4h3l40 -4
q4 0 4 -2t-1 -3l-3 -1h-54z" />
    <glyph glyph-name="fi-brands-atandt" unicode="&#xe111;" 
d="M150 300q-41 0 -75.5 -20t-54.5 -54.5t-20 -75.5t20 -75.5t54.5 -54.5t75.5 -20t75.5 20t54.5 54.5t20 75.5t-20 75.5t-54.5 54.5t-75.5 20zM67 268q37 26 82.5 26t82.5 -26q1 -2 1 -4q0 -7 -11 -13.5t-29.5 -11t-41.5 -5t-42.5 2.5t-31.5 9t-13 14q0 4 3 8zM28 226
q10 16 25 30q-6 -8 -6 -16v0q0 -8 7.5 -16t23.5 -13q18 -6 44 -6q41 0 81 13q23 8 35.5 17t11.5 17v1q12 -11 21 -25v-4q0 -14 -15 -24q-20 -14 -62 -18q-30 -2 -86 5h-2q-22 3 -40 9t-28 13.5t-10 14.5v2zM17 206v-8q0 -13 13.5 -25.5t37.5 -20t53 -7.5q33 -1 67 8
q37 11 59 22q32 18 32 37v1q8 -17 12 -34q-3 -17 -20 -31q-26 -21 -77 -26q-9 -1 -31 0q-30 1 -57 6q-36 6 -59 17q-29 14 -37 34v2q2 13 7 25zM150 6q-26 0 -50 9t-43 25q20 -12 48 -18q19 -4 40 -4q39 0 70 12q25 9 43 25q-21 -23 -48.5 -36t-59.5 -13zM270 71
q-18 -18 -43 -29q-32 -14 -69 -13q-44 0 -92 20q-24 10 -40 28q-7 12 -12 25q14 -27 44 -41q23 -11 54 -13q20 -2 36 0q63 7 101 28q28 15 40 36q-6 -22 -19 -41zM168 68q-21 -1 -53.5 5.5t-56.5 16.5q-17 7 -31 18.5t-20 23.5q-1 9 -1 18v4q4 -17 18.5 -32t38.5 -23
q32 -10 58 -10t71 10q54 12 80 34q17 15 21 31q1 -7 1 -14q0 -12 -2 -25q-11 -21 -35 -35q-34 -20 -89 -22z" />
    <glyph glyph-name="fi-brands-atlassian" unicode="&#xe112;" 
d="M89 161q-3 4 -7.5 4t-6.5 -5l-74 -147q-2 -5 0.5 -9t7.5 -4h102q6 0 8 5q11 22 10.5 51t-11 57t-29.5 48zM143 295q-29 -46 -31 -100q-2 -48 19 -91l50 -99q2 -5 8 -5h102q5 0 7.5 4t0.5 9l-142 282q-2 5 -6.5 5t-7.5 -5z" />
    <glyph glyph-name="fi-brands-atom" unicode="&#xe113;" 
d="M207 13q-24 0 -54 30.5t-55 79.5l-9 19q-13 -26 -19.5 -48.5t-5.5 -37.5t8 -20t19 -1.5t27 14.5q2 1 4.5 0.5t4 -2.5t1 -4.5t-2.5 -3.5q-38 -28 -59 -14q-13 9 -14 29t7 47t24 56q-8 18 -12 36q-36 -7 -51 -21q-7 -6 -7 -13q-1 -15 26 -30q2 -1 3 -3.5t-0.5 -4.5t-3.5 -3
t-5 0q-19 10 -27 22q-7 10 -6 19q1 12 12 22q17 16 56 24q-8 37 -1 59q5 14 16 20q8 4 19 2q14 -3 32 -17q2 -1 2.5 -3.5t-1.5 -4.5t-4.5 -2.5t-4.5 1.5q-25 19 -37 13q-7 -4 -10 -13q-6 -19 1 -53q18 3 38 4q31 39 60 58q32 21 51 9q21 -14 13 -57q-1 -3 -3 -4t-4.5 -0.5
t-4 2.5t-0.5 4q2 15 2 25q-2 14 -9 19q-12 7 -37 -8t-51 -48h18q42 -2 76 -11.5t53 -24.5t18 -31q-1 -11 -11 -20.5t-27 -16.5q-2 -1 -4.5 0t-3.5 3.5t0 4.5t4 3q13 6 21 13t9 14q0 11 -17.5 22.5t-47.5 19.5q-32 9 -71 11q-14 1 -27 1q-9 -11 -16 -22t-13 -21q6 -14 13 -27
q18 -35 39 -61q20 -24 38 -35t27.5 -6t11.5 25t-5 48q-8 31 -24 65q-1 2 -0.5 4.5t3 4t5 0.5t3.5 -3q18 -37 25.5 -69.5t4 -55t-17.5 -30.5q-6 -3 -12 -3zM83 195q3 -12 8 -24l7 12l11 15q-14 -1 -26 -3zM168 154q2 -7 -2 -13.5t-11.5 -8t-13.5 2.5t-7.5 11.5t2.5 13.5
t11 7.5t13.5 -2.5t7.5 -11v0z" />
    <glyph glyph-name="fi-brands-audition" unicode="&#xe11e;" 
d="M96 198l17 -54h-33zM247 295h-194q-22 0 -37.5 -15.5t-15.5 -37.5v-184q0 -22 15.5 -37.5t37.5 -15.5h194q22 0 37.5 15.5t15.5 37.5v184q0 22 -15.5 37.5t-37.5 15.5zM156 91h-26q-1 0 -1 2l-11 30h-45l-10 -30q0 -2 -2 -2h-23q-2 0 -2 2l41 117q1 4 1 8q0 1 1 2h32
q1 0 1 -1l45 -126q1 -2 -1 -2zM251 91h-21q-1 0 -2 1l-1 7q-6 -6 -13 -8.5t-14 -2.5t-13.5 2t-11 7.5t-7 13t-2.5 16.5v59q0 1 1 1h24q1 1 2 -1v-55q-1 -7 3.5 -13t12.5 -6q5 0 9 2t7 5v67q0 1 2 1h23q2 1 2 -1l-1 -82l1 -11q0 -2 -1 -2z" />
    <glyph glyph-name="fi-brands-behance" unicode="&#xe186;" 
d="M120 180q0 15 -20 15h-26v-30h28q8 0 13 3.5t5 11.5zM208 165q-9 0 -14.5 -5.5t-6.5 -14.5h42q-2 20 -21 20zM105 144h-31v-36h30q21 0 21 18t-20 18zM247 296h-194q-22 0 -37.5 -15.5t-15.5 -37.5v-186q0 -22 15.5 -37.5t37.5 -15.5h194q22 0 37.5 15.5t15.5 37.5v186
q0 22 -15.5 37.5t-37.5 15.5zM182 210h52v-12h-52v12zM108 86h-62v129h60q19 0 29 -6q12 -8 12 -26q0 -9 -4 -14.5t-13 -10.5q11 -3 17 -12.5t6 -21.5q0 -19 -13 -28.5t-32 -9.5zM254 129h-67q0 -11 6 -17.5t17 -6.5q6 0 12 3.5t8 8.5h23q-10 -31 -44 -31q-22 0 -34.5 13.5
t-12.5 35t13 35.5t34 14t33 -14.5t12 -35.5v-5z" />
    <glyph glyph-name="fi-brands-bitcoin" unicode="&#xe1ad;" 
d="M179 119q-4 -13 -21 -12q-10 0 -27 4l-3 1l9 36l4 -1q17 -4 26 -8q15 -8 12 -20zM184 172q-3 -11 -18 -12q-8 0 -22 4l-3 1l8 33l4 -1q14 -3 21 -7q12 -7 10 -18zM186 296q-39 9 -77.5 -2t-66.5 -39.5t-37.5 -68t1.5 -78t39.5 -66.5t68 -37.5t78 1.5t66.5 39.5t37.5 68
t-1.5 78t-39.5 66.5t-68.5 38zM119 199q1 7 -8 9q1 1 -11 3v0l4 18l33 -8l7 27l16 -4l-6 -27l13 -3l6 26l17 -4l-7 -27q17 -6 26 -14q9 -10 7 -24q-3 -20 -21 -24q12 -6 16 -15.5t-1 -24.5q-6 -18 -22 -22q-13 -4 -36 0l-7 -27l-16 4l7 27l-13 3l-7 -27l-17 4l7 28l-33 8
l8 19l6 -2l6 -1q6 -2 8 4z" />
    <glyph glyph-name="fi-brands-blackberry" unicode="&#xe1b0;" 
d="M85 223q0 8 -6 13q-7 7 -22 7h-35l-10 -46h37q19 0 28 8q8 7 8 18zM178 223q0 8 -6 13q-7 7 -22 7h-35l-9 -46h36q19 0 28 8q8 7 8 18zM72 154q0 8 -5 14q-7 6 -23 6h-34l-10 -45h36q19 0 29 8q7 7 7 17zM165 154q0 8 -5 14q-7 6 -22 6h-35l-10 -45h36q20 0 29 8
q7 7 7 17zM263 182q0 8 -6 13q-7 7 -22 7h-35l-9 -46h36q19 0 28 9q8 6 8 17zM249 111q0 8 -5 13q-7 7 -22 7h-35l-10 -46h36q20 0 29 8q7 7 7 18zM152 83q0 8 -6 13q-7 7 -22 7h-34l-10 -46h36q19 0 28 9q8 6 8 17zM284 57q-8 0 -12.5 5t-4.5 12.5t5 12t11.5 4.5t11.5 -4.5
t5 -12t-5 -12.5t-11 -5zM284 88q-6 0 -9.5 -4t-3.5 -10t3.5 -10t9 -4t9 4t3.5 10t-3.5 10t-8.5 4zM280 65h-3v18h7q7 0 7 -5t-5 -5l5 -8h-3l-5 8h-3v-8zM284 75q4 0 4 3t-4 3h-4v-6h4z" />
    <glyph glyph-name="fi-brands-blogger" unicode="&#xe1c2;" 
d="M259 300h-2q-217 0 -221 -1q-13 -3 -22.5 -12t-12.5 -21q-1 -4 -1 -19v-195q0 -15 1 -18q3 -12 12 -21t21 -12q3 -1 20 -1h193q15 0 18 1q15 4 24 14.5t11 24.5v217l-1 7q-2 8 -5 14q-5 10 -12 15q-10 7 -23 7zM243 133q0 -19 -0.5 -24t-1.5 -8q-4 -15 -14 -26
q-15 -15 -34 -17q-6 -1 -45.5 -1t-44.5 1q-10 2 -19 7.5t-15 14t-9 17.5q-2 6 -2.5 15.5t-0.5 41.5q0 39 1 43q4 14 13.5 25t22.5 17q7 3 15 3.5t30.5 0.5t25.5 -1q16 -5 28 -17q16 -18 16 -38q0 -6 1.5 -8.5t4 -4t4.5 -1.5h8q9 -1 10 -2q4 -2 5 -7q1 -3 1 -31zM160 183
q0 -6 -5 -9q-1 -1 -4 -1h-17h-21q-5 2 -6.5 7.5t1.5 9t6.5 4t18.5 0.5l17 -1q3 0 5 -1q5 -3 5 -9zM193 116q0 -6 -6 -9q-2 -1 -8 -1h-28h-36q-8 2 -9.5 8t4.5 10q3 2 7 3h62q4 -1 7 -1q7 -3 7 -10z" />
    <glyph glyph-name="fi-brands-bluetooth" unicode="&#xe1ca;" 
d="M246 12h2q2 0 2.5 1t0.5 2.5t-3 1.5h-2v-5zM251 6l-3 5h-2v-5h-1v12h5l2 -1l1 -2q0 -1 -1 -2l-2 -2v0l3 -5h-2zM248 22q-2 0 -3.5 -0.5t-3 -2t-2.5 -3.5q-1 -4 0 -8l2.5 -2.5t3.5 -2.5t5 -0.5t5 2.5t2 3q2 4 0 8q0 2 -1.5 3.5t-3.5 2t-4 0.5zM248 1q-2 0 -4 1t-4 2.5
t-3 3.5q-2 4 0 8.5t7 6.5q2 1 4 1t4.5 -1t4 -2.5t2.5 -3.5q2 -5 0 -9q-1 -2 -3 -4q-3 -3 -8 -3zM150 0q35 0 58 12q25 15 38 46q15 35 15 92t-14 92q-13 31 -39 46q-23 12 -58 12t-58 -12q-26 -15 -39 -46q-14 -35 -14 -92t15 -92q13 -31 38 -46q23 -12 58 -12zM136 150
l-54 54l16 15l42 -42v102l78 -78l-51 -51l51 -51l-78 -78v102l-42 -42l-16 15zM162 74l25 25l-25 25v-50zM162 226l25 -25l-25 -25v50z" />
    <glyph glyph-name="fi-brands-bootstrap" unicode="&#xe1f8;" 
d="M162 162h-50v48h50q13 0 19.5 -5.5t6.5 -18t-7.5 -18.5t-18.5 -6zM196 113q0 -14 -8 -21t-22 -7h-54v55h54q14 0 22 -7t8 -20zM250 300h-200q-21 0 -35.5 -14.5t-14.5 -35.5v-200q0 -21 14.5 -35.5t35.5 -14.5h200q21 0 35.5 14.5t14.5 35.5v200q0 21 -14.5 35.5
t-35.5 14.5zM223 89q-4 -9 -12 -15.5t-20 -10t-29 -3.5h-80v175h85q23 0 37.5 -11t14.5 -33q0 -13 -6.5 -22.5t-18.5 -14.5v0q16 -4 24 -16t8 -29q0 -11 -3 -20z" />
    <glyph glyph-name="fi-brands-bridgestone" unicode="&#xe25b;" 
d="M37 131l37 128q2 10 12 18t21 8h112q1 0 1.5 -1.5t-0.5 -2.5q-44 -30 -93 -71.5t-87 -80.5q-1 -1 -2.5 -0.5t-0.5 2.5v0zM125 53l37 127q0 2 -1 2.5t-2 -0.5q-40 -34 -84 -79.5t-74 -83.5q-1 -1 -1 -2.5t2 -1.5h157q50 0 78 16.5t38 53.5q7 29 -5.5 49t-38.5 25
q-1 0 -1 0.5t1 1.5q25 4 40 15q20 14 27 42q5 21 -2.5 37t-23.5 23.5t-36 6.5l-61 -211q-2 -8 -10 -14.5t-16 -6.5h-24z" />
    <glyph glyph-name="fi-brands-burger-king" unicode="&#xe289;" 
d="M45 188h-1q-2 0 -2 -2v-5q0 -2 2 -2h1q4 0 4 4.5t-4 4.5zM45 170h-1q-2 0 -2 -2v-6q0 -2 2 -2h1q5 0 5 5t-5 5zM45 170h-1q-2 0 -2 -2v-6q0 -2 2 -2h1q5 0 5 5t-5 5zM45 188h-1q-2 0 -2 -2v-5q0 -2 2 -2h1q4 0 4 4.5t-4 4.5zM45 188h-1q-2 0 -2 -2v-5q0 -2 2 -2h1
q4 0 4 4.5t-4 4.5zM45 170h-1q-2 0 -2 -2v-6q0 -2 2 -2h1q5 0 5 5t-5 5zM131 187h-1q-2 0 -2 -2v-6q0 -1 2 -1h1q4 0 4 4.5t-4 4.5zM131 187h-1q-2 0 -2 -2v-6q0 -1 2 -1h1q4 0 4 4.5t-4 4.5zM45 170h-1q-2 0 -2 -2v-6q0 -2 2 -2h1q5 0 5 5t-5 5zM45 188h-1q-2 0 -2 -2v-5
q0 -2 2 -2h1q4 0 4 4.5t-4 4.5zM45 188h-1q-2 0 -2 -2v-5q0 -2 2 -2h1q4 0 4 4.5t-4 4.5zM45 170h-1q-2 0 -2 -2v-6q0 -2 2 -2h1q5 0 5 5t-5 5zM131 187h-1q-2 0 -2 -2v-6q0 -1 2 -1h1q4 0 4 4.5t-4 4.5zM253 187h-1q-2 0 -2 -2v-6q0 -1 2 -1h1q4 0 4 4.5t-4 4.5zM253 187
h-1q-2 0 -2 -2v-6q0 -1 2 -1h1q4 0 4 4.5t-4 4.5zM131 187h-1q-2 0 -2 -2v-6q0 -1 2 -1h1q4 0 4 4.5t-4 4.5zM45 170h-1q-2 0 -2 -2v-6q0 -2 2 -2h1q5 0 5 5t-5 5zM45 188h-1q-2 0 -2 -2v-5q0 -2 2 -2h1q4 0 4 4.5t-4 4.5zM45 188h-1q-2 0 -2 -2v-5q0 -2 2 -2h1q4 0 4 4.5
t-4 4.5zM45 170h-1q-2 0 -2 -2v-6q0 -2 2 -2h1q5 0 5 5t-5 5zM131 187h-1q-2 0 -2 -2v-6q0 -1 2 -1h1q4 0 4 4.5t-4 4.5zM253 187h-1q-2 0 -2 -2v-6q0 -1 2 -1h1q4 0 4 4.5t-4 4.5zM253 187h-1q-2 0 -2 -2v-6q0 -1 2 -1h1q4 0 4 4.5t-4 4.5zM131 187h-1q-2 0 -2 -2v-6
q0 -1 2 -1h1q4 0 4 4.5t-4 4.5zM45 170h-1q-2 0 -2 -2v-6q0 -2 2 -2h1q5 0 5 5t-5 5zM45 188h-1q-2 0 -2 -2v-5q0 -2 2 -2h1q4 0 4 4.5t-4 4.5zM45 188h-1q-2 0 -2 -2v-5q0 -2 2 -2h1q4 0 4 4.5t-4 4.5zM45 170h-1q-2 0 -2 -2v-6q0 -2 2 -2h1q5 0 5 5t-5 5zM131 187h-1
q-2 0 -2 -2v-6q0 -1 2 -1h1q4 0 4 4.5t-4 4.5zM253 187h-1q-2 0 -2 -2v-6q0 -1 2 -1h1q4 0 4 4.5t-4 4.5zM253 187h-1q-2 0 -2 -2v-6q0 -1 2 -1h1q4 0 4 4.5t-4 4.5zM131 187h-1q-2 0 -2 -2v-6q0 -1 2 -1h1q4 0 4 4.5t-4 4.5zM45 170h-1q-2 0 -2 -2v-6q0 -2 2 -2h1q5 0 5 5
t-5 5zM44 179h1q4 0 4 4.5t-4 4.5h-1q-2 0 -2 -2v-5q0 -2 2 -2zM150 300q-35 0 -64 -9q-21 -7 -37.5 -19t-26 -26.5t-9.5 -28.5v-166q0 -9 6.5 -18.5t18.5 -15.5q16 -9 42 -13t70 -4t70 4t42 13q12 6 18.5 15.5t6.5 18.5v166q0 18 -16 37.5t-46 31.5q-33 14 -75 14zM28 191
q0 4 2.5 6.5t6.5 2.5h10q7 0 11.5 -4t4.5 -10t-3 -9l-1 -1l1 -1q5 -4 5 -11t-4.5 -11.5t-12.5 -4.5h-11q-4 0 -6.5 2.5t-2.5 6.5v34zM88 162q4 0 4 4v25q0 4 2.5 6.5t6 2.5t5.5 -2.5t2 -6.5v-26q0 -8 -5 -12.5t-15 -4.5v0q-9 0 -14 4.5t-5 12.5v26q0 4 2 6.5t5.5 2.5t6 -2.5
t2.5 -6.5v-25q0 -4 3 -4zM143 170q1 -3 5 -8l1 -1q2 -3 2 -6t-2 -5t-6 -2t-7 4.5t-5 11.5q0 2 -1 2t-1 -2v-8q0 -4 -2.5 -6t-6 -2t-5.5 2t-2 6v35q0 4 2.5 6.5t6.5 2.5h9q8 0 13 -4.5t5 -12.5t-5 -12q-1 0 -1 -1zM177 162q4 0 4 2t-2.5 2t-4.5 1.5t-2 4.5q0 7 8 7h3
q6 0 9.5 -3t3.5 -9q0 -9 -5.5 -14t-15 -5t-16.5 6.5t-7 19.5t7 19.5t16.5 6.5t15.5 -4q3 -2 3 -5.5t-2 -5.5t-4.5 -2t-5 1t-5.5 1t-6 -3t-3 -8.5t2.5 -8.5t6.5 -3zM162 133l11 -21q1 -2 2 -2t1 2v17q0 6 3.5 10t9.5 4t9 -4t3 -10v-48q0 -6 -3 -10t-9 -4q-9 0 -14 10l-11 21
q-1 2 -2 2t-1 -2v-17q0 -6 -3 -10t-9 -4t-9.5 4t-3.5 10v48q0 6 3.5 10t9.5 4q8 0 13 -10zM246 87q2 0 3.5 1t1.5 3t-3.5 2t-7 2.5t-3.5 7.5t3.5 7.5t8.5 2.5h4q10 0 15 -5t5 -13q0 -13 -8 -20.5t-22 -7.5t-24.5 10t-10.5 28.5t10.5 28t25 9.5t22.5 -6q4 -3 4 -8t-3 -8
t-6.5 -3t-7 2t-8.5 2t-9.5 -4.5t-4.5 -13t4 -13t11 -4.5zM216 180h6q3 0 5 -1.5t2 -4.5t-2 -4.5t-5 -1.5h-5q-2 0 -2 -2v-2q0 -1 2 -1h7q3 0 5 -2t2 -5.5t-2 -5.5t-5 -2h-15q-5 0 -7 2.5t-2 6.5v34q0 4 2 6.5t7 2.5h15q3 0 5 -2t2 -5.5t-2 -5.5t-5 -2h-7q-2 0 -2 -2v-1
q0 -2 1 -2zM113 143q7 0 10.5 -4t3.5 -11v-46q0 -7 -3.5 -11t-10 -4t-10 4t-3.5 11v46q0 7 3.5 11t9.5 4zM79 143q5 0 9 -3.5t4 -8.5t-3 -9.5t-11 -11.5q-1 -2 -1 -3t1 -2v0q3 -5 11 -14q5 -5 5 -10.5t-4 -9.5t-9.5 -4t-11.5 6q-3 4 -6.5 9.5t-5.5 9.5v0q-1 2 -2 2t-1 -2
v-11q0 -6 -3.5 -10t-9.5 -4t-9.5 4t-3.5 10v48q0 6 3.5 10t9.5 4t9.5 -4t3.5 -10v-8q0 -1 1 -1t2 1q3 3 11 15q4 7 11 7zM255 30q-15 -8 -42 -12q-23 -3 -62 -3t-63 3q-27 4 -41 12q-9 5 -14 11.5t-5 12t7 5.5h232q6 0 6 -5.5t-4.5 -12t-13.5 -11.5zM266 148q-5 0 -8 4.5
t-5 11.5q0 2 -1 2t-1 -2v-8q0 -4 -2.5 -6t-6 -2t-5.5 2t-2 6v35q0 4 2.5 6.5t6.5 2.5h9q8 0 13 -4.5t5 -12.5t-5 -12q-1 0 0 -2t5 -8q2 -3 2 -6t-2 -5t-5 -2zM267 209h-232q-7 0 -7 6q0 14 13 30q15 17 40 28q30 12 69.5 12t69.5 -12q25 -11 40 -28q13 -16 13 -30
q0 -6 -6 -6zM253 187h-1q-2 0 -2 -2v-6q0 -1 2 -1h1q4 0 4 4.5t-4 4.5zM131 187h-1q-2 0 -2 -2v-6q0 -1 2 -1h1q4 0 4 4.5t-4 4.5zM44 160h1q5 0 5 5t-5 5h-1q-2 0 -2 -2v-6q0 -2 2 -2zM44 179h1q4 0 4 4.5t-4 4.5h-1q-2 0 -2 -2v-5q0 -2 2 -2zM45 188h-1q-2 0 -2 -2v-5
q0 -2 2 -2h1q4 0 4 4.5t-4 4.5zM45 170h-1q-2 0 -2 -2v-6q0 -2 2 -2h1q5 0 5 5t-5 5zM131 187h-1q-2 0 -2 -2v-6q0 -1 2 -1h1q4 0 4 4.5t-4 4.5zM253 187h-1q-2 0 -2 -2v-6q0 -1 2 -1h1q4 0 4 4.5t-4 4.5zM253 187h-1q-2 0 -2 -2v-6q0 -1 2 -1h1q4 0 4 4.5t-4 4.5zM131 187
h-1q-2 0 -2 -2v-6q0 -1 2 -1h1q4 0 4 4.5t-4 4.5zM45 170h-1q-2 0 -2 -2v-6q0 -2 2 -2h1q5 0 5 5t-5 5zM45 188h-1q-2 0 -2 -2v-5q0 -2 2 -2h1q4 0 4 4.5t-4 4.5zM45 188h-1q-2 0 -2 -2v-5q0 -2 2 -2h1q4 0 4 4.5t-4 4.5zM45 170h-1q-2 0 -2 -2v-6q0 -2 2 -2h1q5 0 5 5t-5 5
zM131 187h-1q-2 0 -2 -2v-6q0 -1 2 -1h1q4 0 4 4.5t-4 4.5zM253 187h-1q-2 0 -2 -2v-6q0 -1 2 -1h1q4 0 4 4.5t-4 4.5zM253 187h-1q-2 0 -2 -2v-6q0 -1 2 -1h1q4 0 4 4.5t-4 4.5zM131 187h-1q-2 0 -2 -2v-6q0 -1 2 -1h1q4 0 4 4.5t-4 4.5zM45 170h-1q-2 0 -2 -2v-6
q0 -2 2 -2h1q5 0 5 5t-5 5zM45 188h-1q-2 0 -2 -2v-5q0 -2 2 -2h1q4 0 4 4.5t-4 4.5zM45 188h-1q-2 0 -2 -2v-5q0 -2 2 -2h1q4 0 4 4.5t-4 4.5zM45 170h-1q-2 0 -2 -2v-6q0 -2 2 -2h1q5 0 5 5t-5 5zM131 187h-1q-2 0 -2 -2v-6q0 -1 2 -1h1q4 0 4 4.5t-4 4.5zM131 187h-1
q-2 0 -2 -2v-6q0 -1 2 -1h1q4 0 4 4.5t-4 4.5zM45 170h-1q-2 0 -2 -2v-6q0 -2 2 -2h1q5 0 5 5t-5 5zM45 188h-1q-2 0 -2 -2v-5q0 -2 2 -2h1q4 0 4 4.5t-4 4.5zM45 188h-1q-2 0 -2 -2v-5q0 -2 2 -2h1q4 0 4 4.5t-4 4.5zM45 170h-1q-2 0 -2 -2v-6q0 -2 2 -2h1q5 0 5 5t-5 5z
M131 187h-1q-2 0 -2 -2v-6q0 -1 2 -1h1q4 0 4 4.5t-4 4.5zM131 187h-1q-2 0 -2 -2v-6q0 -1 2 -1h1q4 0 4 4.5t-4 4.5zM45 170h-1q-2 0 -2 -2v-6q0 -2 2 -2h1q5 0 5 5t-5 5zM45 188h-1q-2 0 -2 -2v-5q0 -2 2 -2h1q4 0 4 4.5t-4 4.5zM224 148v0v0v0v0z" />
    <glyph glyph-name="fi-brands-c" unicode="&#xe293;" 
d="M207 185q0 3 -1 6q-2 8 -6 15q-5 9 -14 14q-10 7 -24 7q-30 1 -46 -20t-16 -56.5t17 -59t46 -23.5q25 0 37 23q6 12 7 23l77 -5v-6q0 -9 -2 -18q-3 -13 -8 -24q-7 -14 -18 -24q-37 -37 -98 -37h-2q-19 0 -30 2q-19 2 -34 9q-20 9 -36 26q-25 26 -35 56q-8 23 -8 54
q0 34 9 60q12 35 41 60q41 33 90 33q35 0 62 -12q23 -10 40 -29q13 -15 21 -34q6 -14 9 -29l2 -12z" />
    <glyph glyph-name="fi-brands-capture" unicode="&#xe2de;" 
d="M247 296h-194q-22 0 -37.5 -15.5t-15.5 -37.5v-186q0 -22 15.5 -37.5t37.5 -15.5h194q22 0 37.5 15.5t15.5 37.5v186q0 22 -15.5 37.5t-37.5 15.5zM149 218v-23q0 -1 -2 -1q-6 3 -12.5 4t-13.5 1q-12 0 -22.5 -5.5t-15.5 -14.5t-5.5 -19.5t2.5 -20.5q4 -14 16 -20.5
t25 -6.5h3q17 0 22 4q1 0 1.5 -0.5t-0.5 -0.5v-21q1 -2 -1 -3q-6 -2 -13 -3t-15 0q-11 -1 -22 2t-19.5 8.5t-15 14t-9.5 19.5t-3 23q0 21 8.5 36t25.5 24t39 9q8 0 15 -1q6 -1 11 -3q1 -1 1 -2zM246 97q-2 -1 -5 -2l-10 -4q-7 -2 -14 -3t-14 0q-11 -1 -20.5 3t-15.5 11.5
t-6 18.5t6 18t17 11t24 4h11v4q-1 3 -3 5t-6.5 3.5t-10.5 1.5t-13 -2q-3 0 -10 -3l-3 -2h-1l-1 1v21q0 2 2 3q5 2 15 4q8 1 17 1q14 0 23.5 -5.5t13.5 -14.5t4 -20l1 -53zM209 133q-10 0 -14.5 -3.5t-4.5 -7.5t2 -6.5t5 -4t10 -1.5h7l5 2v20z" />
    <glyph glyph-name="fi-brands-cc-amazon-pay" unicode="&#xe323;" 
d="M271 93q-24 -17 -57 -27t-64 -10q-43 0 -81 15t-68 42q-2 2 -0.5 4t4.5 0q32 -18 70 -28.5t78 -10.5q28 0 57 6t56 17q5 2 7 -1.5t-2 -6.5zM285 109q4 -5 -9 -37v0q-1 -3 0.5 -3.5t3.5 1.5q8 6 14 18q4 10 5.5 19.5t-0.5 12t-11.5 4t-20.5 -0.5q-13 -2 -21 -8
q-3 -2 -2.5 -3.5t2.5 -1.5q35 4 39 -1zM237 149l34 87l2 3q0 2 -3 2h-8q-3 0 -4 -0.5t-2 -3.5l-21 -60l-21 60q-1 3 -2 3.5t-4 0.5h-9q-2 0 -2 -1.5t1 -3.5l30 -74l-3 -8q-3 -8 -6 -10.5t-9 -2.5h-7q-2 0 -2 -2v-5q0 -2 1 -3t2 -1q4 -1 9 -1q9 0 14.5 4.5t9.5 15.5zM110 220
q-3 8 -7 13t-10 8t-13.5 3t-14 -3t-12.5 -8l-1 5q0 3 -3 3h-7q-3 0 -3 -3v-104q0 -3 3 -3h9q3 0 3 3v36q10 -9 24 -9q8 0 14 3t10.5 8.5t7 13t2.5 17t-2 17.5zM75 173q-11 0 -21 8v43q10 7 21 7q21 0 21 -29t-21 -29zM180 238q-7 6 -22 6q-7 0 -14.5 -1.5t-12.5 -3.5
q-2 -1 -2.5 -2t-0.5 -3v-4q0 -3 2 -3l2 1q13 3 23 3t13.5 -3.5t3.5 -11.5v-10q-11 3 -19 3q-14 0 -22 -7t-8 -18t6.5 -17t17.5 -6q7 0 13.5 2.5t12.5 7.5v-6q1 -2 4 -2h7q3 0 3 3v53q0 12 -7 19zM172 180q-5 -4 -10.5 -6t-11 -2t-9 3.5t-3.5 8.5q0 14 18 14l8 -1l8 -1v-16z
" />
    <glyph glyph-name="fi-brands-cc-apple-pay" unicode="&#xe324;" 
d="M71 176q-1 6 3.5 11.5t11.5 5.5q0 -6 -4.5 -11.5t-10.5 -5.5zM101 139v0q-2 -6 -5 -10.5t-5.5 -7t-5.5 -2.5t-6.5 1.5t-6.5 1.5t-6.5 -1.5t-5.5 -1.5q-5 0 -11 8.5t-8 19.5t3 19q2 4 6 6.5t8 2.5t8 -1.5t5.5 -1.5t4.5 1q6 3 10 2q9 0 13 -7v0q-8 -5 -8 -13t5 -12
q2 -3 5 -4v0zM139 188h-26v-69h11v24h15q10 0 16.5 6.5t6.5 16.5t-6.5 16t-16.5 6zM136 152h-12v27h12q7 0 11 -3.5t4 -10t-4 -10t-11 -3.5zM187 170q-9 0 -14.5 -4t-6.5 -11h10q2 7 11 7q4 0 7 -2.5t3 -6.5v-4l-14 -1q-9 0 -14 -4t-5 -10.5t5 -10.5t12 -4q5 0 9.5 2.5
t6.5 6.5v-9h10v35q0 7 -5.5 11.5t-14.5 4.5zM197 138q0 -5 -4 -8t-8.5 -3t-7 2t-2.5 5q0 7 9 7l13 1v-4zM248 170h11l-19 -53q-3 -9 -7.5 -12.5t-11.5 -3.5h-5v8h4q6 0 9 7v3l-18 51h12l12 -41zM300 222q0 9 -2.5 14t-7.5 7.5t-14 2.5h-251q-6 0 -9 -1q-6 -1 -10 -5t-5 -10
q-1 -3 -1 -9v-143q0 -9 2.5 -14t7.5 -7.5t14 -2.5h252q9 0 14 2.5t7.5 7.5t2.5 14v144zM294 81v-3v-1q0 -7 -2 -10t-5 -5t-10 -2h-254q-7 0 -10 2t-5 5t-2 10v148q1 5 2.5 8t4.5 4.5t8 2.5h256q7 0 10 -2t5 -5t2 -10v-142zM71 176q-1 6 3.5 11.5t11.5 5.5q0 -6 -4.5 -11.5
t-10.5 -5.5zM101 139v0q-2 -6 -5 -10.5t-5.5 -7t-5.5 -2.5t-6.5 1.5t-6.5 1.5t-6.5 -1.5t-5.5 -1.5q-5 0 -11 8.5t-8 19.5t3 19q2 4 6 6.5t8 2.5t8 -1.5t5.5 -1.5t4.5 1q6 3 10 2q9 0 13 -7v0q-8 -5 -8 -13t5 -12q2 -3 5 -4v0zM139 188h-26v-69h11v24h15q10 0 16.5 6.5
t6.5 16.5t-6.5 16t-16.5 6zM136 152h-12v27h12q7 0 11 -3.5t4 -10t-4 -10t-11 -3.5zM187 170q-9 0 -14.5 -4t-6.5 -11h10q2 7 11 7q4 0 7 -2.5t3 -6.5v-4l-14 -1q-9 0 -14 -4t-5 -10.5t5 -10.5t12 -4q5 0 9.5 2.5t6.5 6.5v-9h10v35q0 7 -5.5 11.5t-14.5 4.5zM197 138
q0 -5 -4 -8t-8.5 -3t-7 2t-2.5 5q0 7 9 7l13 1v-4zM259 170l-19 -53q-3 -9 -7.5 -12.5t-11.5 -3.5h-5v8h4q6 0 9 7v3l-18 51h12l12 -41l13 41h11zM82 181q-5 -5 -11 -5q-1 6 3.5 11.5t11.5 5.5q0 -6 -4 -12zM101 139v0q-2 -6 -5 -10.5t-5.5 -7t-5.5 -2.5t-6.5 1.5t-6.5 1.5
t-6.5 -1.5t-5.5 -1.5q-5 0 -11 8.5t-8 19.5t3 19q2 4 6 6.5t8 2.5t8 -1.5t5.5 -1.5t4.5 1q6 3 10 2q9 0 13 -7v0q-8 -5 -8 -13t5 -12q2 -3 5 -4v0zM139 188h-26v-69h11v24h15q10 0 16.5 6.5t6.5 16.5t-6.5 16t-16.5 6zM136 152h-12v27h12q7 0 11 -3.5t4 -10t-4 -10t-11 -3.5
zM187 170q-9 0 -14.5 -4t-6.5 -11h10q2 7 11 7q4 0 7 -2.5t3 -6.5v-4l-14 -1q-9 0 -14 -4t-5 -10.5t5 -10.5t12 -4q5 0 9.5 2.5t6.5 6.5v-9h10v35q0 7 -5.5 11.5t-14.5 4.5zM197 138q0 -5 -4 -8t-8.5 -3t-7 2t-2.5 5q0 7 9 7l13 1v-4zM248 170l-13 -41l-13 41h-11l18 -51v-3
q-3 -7 -9 -7h-4v-8h4q8 0 12.5 3.5t7.5 12.5l19 53h-11z" />
    <glyph glyph-name="fi-brands-cc-diners-club" unicode="&#xe325;" 
d="M158 220v-140q21 8 34.5 27t13.5 43t-13.5 43t-34.5 27zM56 150q0 -23 13.5 -42.5t34.5 -27.5v140q-21 -8 -34.5 -27t-13.5 -43zM158 220v-140q21 8 34.5 27t13.5 43t-13.5 43t-34.5 27zM56 150q0 -23 13.5 -42.5t34.5 -27.5v140q-21 -8 -34.5 -27t-13.5 -43zM164 280
h-33q-36 0 -66 -17t-47.5 -46.5t-17.5 -67.5q0 -35 17.5 -64.5t48 -47t65.5 -17.5h33q35 0 66.5 17.5t50.5 47t19 64.5q0 37 -19 67t-50 47t-67 17zM131 32q-32 0 -59.5 15.5t-43.5 43t-16 59.5t16 59.5t43.5 43.5t59.5 16t59.5 -16t43.5 -43.5t16 -59.5t-16 -59.5
t-43.5 -43t-59.5 -15.5zM158 220v-140q21 8 34.5 27t13.5 43t-13.5 43t-34.5 27zM56 150q0 -23 13.5 -42.5t34.5 -27.5v140q-21 -8 -34.5 -27t-13.5 -43z" />
    <glyph glyph-name="fi-brands-cc-visa" unicode="&#xe326;" 
d="M289 245h-278q-4 0 -7.5 -3.5t-3.5 -8.5v-166q0 -5 3.5 -8.5t7.5 -3.5h278q4 0 7.5 3.5t3.5 8.5v166q0 5 -3.5 8.5t-7.5 3.5zM59 110l-17 64q0 3 -1 4.5t-3 2.5q-8 4 -21 7l1 2h35q3 0 6 -2.5t3 -5.5l9 -46l21 54h22l-33 -80h-22zM106 110l17 80h20l-17 -80h-20zM163 109
q-14 0 -22 4l3 18l1 -1q10 -5 20 -4q5 0 9 2t4 5t-2.5 5t-8.5 5q-18 9 -18 21.5t10 19.5t25 7q9 0 19 -3l-3 -17q-11 5 -21 3q-4 0 -6 -2t-2.5 -4.5t2 -4.5t8.5 -4q9 -5 12 -9q6 -6 6 -14q0 -12 -9.5 -19.5t-26.5 -7.5zM253 110l-2 12h-27l-4 -12h-22l31 74q3 6 9 6h18
l16 -80h-19zM230 138h17l-6 30z" />
    <glyph glyph-name="fi-brands-centos" unicode="&#xe32a;" 
d="M42 191l-42 -41l42 -41v-68h67l41 -40l41 40h68v67l41 42l-40 40v68h-69l-40 41l-40 -40h-69v-68zM151 290l31 -32h-21v-80l-10 -10l-10 10v81h-21zM48 252h56l-23 -23l53 -54v-8h-10l-53 53l-23 -22v54zM114 252h20v-67l-44 44zM168 252h21l23 -23l-44 -44v67zM198 252
h55v-55l-23 23l-53 -53h-9v8l53 54zM230 211l23 -23v-21h-67zM71 210l44 -43h-67v21zM42 118l-33 32l33 32v-21h80l10 -11l-9 -10h-81v-22zM260 181l31 -31l-32 -32v22h-80l-9 10l10 10h80v21zM141 169l10 -10l10 10v-9h10l-11 -10l10 -10h-9v-10l-11 11l-9 -10v9h-9l10 10
l-11 11h10v8zM48 134h68l-45 -45l-23 22v23zM125 134h9v-9l-55 -54l23 -23h-54v54l23 -22zM167 124v10h9l54 -55l22 23v-54h-54l23 23zM185 134h67v-23l-22 -22zM150 131l11 -10v-80h21l-32 -31l-32 31h23v81zM134 116v-68h-22l-23 23zM167 114l45 -43l-24 -23h-21v66z" />
    <glyph glyph-name="fi-brands-character" unicode="&#xe333;" 
d="M247 296h-194q-22 0 -37.5 -15.5t-15.5 -37.5v-186q0 -22 15.5 -37.5t37.5 -15.5h194q22 0 37.5 15.5t15.5 37.5v186q0 22 -15.5 37.5t-37.5 15.5zM145 218v-22q0 -2 -1 -2q-6 3 -12 4q-24 3 -38 -5q-10 -5 -15.5 -15.5t-5 -22t5.5 -21.5t14 -15q16 -9 38 -6q6 1 11 3
q1 0 1.5 -0.5l0.5 -0.5v-21q0 -2 -2 -3q-6 -2 -12 -3q-21 -2 -37.5 2t-28 15t-16 26t-3.5 31t9 29q9 16 26.5 24.5t37.5 8.5q8 0 15 -1q5 -1 11 -2q1 -1 1 -3zM250 92q0 -2 -2 -2h-23q-2 0 -2 2v56q0 6 -2 10.5t-6 7t-9 2.5t-9 -1.5t-7 -4.5v-70q0 -2 -2 -2h-25q-1 0 -1 1
v140q0 1 1 1h26q1 0 1 -1v-48q6 4 12 6q11 4 25 0.5t20 -18.5q3 -8 3 -20v-59z" />
    <glyph glyph-name="fi-brands-chromecast" unicode="&#xe385;" 
d="M273 273h-246q-11 0 -19 -8t-8 -20v-40h27v40h246v-190h-96v-28h96q11 0 19 8t8 20v190q0 12 -8 20t-19 8zM0 68v-41h41q0 17 -12 29t-29 12zM0 123v-28q19 0 34.5 -9t24.5 -24.5t9 -34.5h27q0 26 -12.5 48t-34.5 35t-48 13zM0 177v-27q33 0 61.5 -16.5t45 -44.5
t16.5 -62h27q0 41 -20 75.5t-54.5 54.5t-75.5 20z" />
    <glyph glyph-name="fi-brands-cloudflare" unicode="&#xe42f;" 
d="M231 161v-1l-6 -16q-4 -10 -13 -17t-19 -7l-109 -1q-2 -1 -2.5 -2.5t0 -2t1.5 -0.5l108 -2q9 0 13.5 -6.5t1.5 -16.5l-1 -5q-1 -2 -3 -2h-199q-2 0 -3 2v7q0 18 13 31.5t31 13.5q-1 6 -1 11q1 12 9.5 20t20 9t21.5 -6q8 21 26.5 34.5t42.5 13.5t43.5 -16t24.5 -40v-1z
M300 100q0 -8 -2 -16q-1 -2 -2 -2h-83l-1 1v1l2 4q3 10 12.5 17t19.5 7l24 2q2 0 2.5 1.5t-0.5 2t-2 1.5l-23 1q-9 0 -13.5 6.5t-1.5 16.5l4 15q1 0 1 1h4q16 0 29.5 -8t21.5 -21.5t8 -29.5z" />
    <glyph glyph-name="fi-brands-confluence" unicode="&#xe491;" 
d="M11 74q-5 -7 -10 -15q-2 -4 -1 -7.5t5 -5.5l62 -38q3 -2 7 -1.5t6 4.5l9 15q12 20 25 26.5t30 2.5q14 -3 39 -14l61 -29q4 -2 7.5 -0.5t5.5 4.5l29 67q2 3 0.5 7t-4.5 6q-26 11 -62 29q-67 32 -115 23q-55 -10 -94 -74zM289 226q5 7 10 15q2 4 1 7.5t-5 5.5l-62 38
q-3 2 -7 1.5t-6 -4.5l-9 -15q-12 -20 -25 -26.5t-30 -2.5q-14 3 -39 14l-61 29q-4 2 -7.5 0.5t-5.5 -4.5l-29 -67q-2 -3 -0.5 -7t4.5 -6q26 -11 62 -29q67 -32 115 -23q55 11 94 74z" />
    <glyph glyph-name="fi-brands-creative-commons-by" unicode="&#xe4b3;" 
d="M150 300q63 0 106.5 -43.5t43.5 -106.5t-43 -105q-45 -45 -106.5 -45t-106 44t-44.5 106t44 106t106 44zM150 273q-51 0 -87 -36.5t-36 -86.5t36.5 -86.5t86.5 -36.5t88 37q35 34 35 85.5t-36 87.5t-87 36zM190 187v-61h-17v-73h-46v73h-17v61q0 4 2.5 7t6.5 3h62
q4 0 6.5 -3t2.5 -7zM129 226q0 21 21 21t21 -21t-21 -21t-21 21z" />
    <glyph glyph-name="fi-brands-creative-commons-nc-eu" unicode="&#xe4b5;" 
d="M256 257q-43 43 -106 43t-106.5 -44t-43.5 -106t44.5 -106t106 -44t106.5 45q43 42 43 105t-44 106v1zM238 64q-37 -37 -87.5 -37t-87 36.5t-36.5 86.5q0 21 7 40l39 -18h-2v-18h14l-1 -11h-13v-18h16q3 -19 13.5 -33t27 -21t34.5 -7q11 0 21.5 2.5t17.5 6.5l-6 28
q-4 -2 -12 -4.5t-16 -2.5q-21 0 -33 13q-5 7 -8 18h55l77 -35q-8 -14 -20 -26zM140 143zM187 154h2v18h-42l-18 8q3 5 6 9q11 13 30 13q14 0 28 -6l7 29q-17 7 -37 7q-18 0 -32.5 -6.5t-25.5 -18.5q-5 -5 -9 -12l-49 21q7 11 17 21q35 36 86 36t87 -36t36 -87q0 -17 -4 -32z
" />
    <glyph glyph-name="fi-brands-creative-commons-nc-jp" unicode="&#xe4b6;" 
d="M256 257q-43 43 -106 43t-106.5 -44t-43.5 -106t44.5 -106t106 -44t106.5 45q43 42 43 105t-44 107zM238 64q-38 -37 -88 -37t-86.5 36.5t-36.5 86.5q0 19 5 36l77 -34h-17v-23h36l3 -7v-12h-39v-23h39v-34h37v34h39v22l49 -22q-7 -12 -18 -23zM203 110h-35v12l2 3z
M207 142v10h-23l38 70h-40l-26 -58l-14 7l-24 51h-40l17 -30l-50 22q8 12 19 23q35 36 86 36t87 -36t36 -87q0 -19 -5 -36z" />
    <glyph glyph-name="fi-brands-creative-commons-nc" unicode="&#xe4b4;" 
d="M150 300q63 0 106.5 -43.5t43.5 -106.5t-43 -105q-45 -45 -106.5 -45t-106 44.5t-44.5 106t44 105.5t106 44zM34 190q-7 -18 -7 -40q0 -50 36.5 -86t87 -36t87.5 36q13 13 20 27l-56 25q-3 -14 -14.5 -23t-27.5 -11v-23h-17v23q-25 1 -45 18l20 21q15 -14 34 -14
q7 0 12.5 3.5t5.5 11.5q0 6 -4 9zM269 118q4 16 4 32q0 52 -36 87.5t-87 35.5t-86 -36q-9 -9 -17 -20l57 -26q4 12 14.5 19t24.5 8v23h17v-23q21 -1 38 -14l-20 -20q-12 9 -25 9q-7 0 -12.5 -2.5t-5.5 -9.5q0 -2 1 -4z" />
    <glyph glyph-name="fi-brands-creative-commons-nd" unicode="&#xe4b7;" 
d="M150 300q63 0 106.5 -43.5t43.5 -106.5t-43 -106q-45 -44 -106.5 -44t-106 44t-44.5 105.5t44 106t106 44.5zM150 273q-51 0 -87 -36.5t-36 -86.5t36.5 -86.5t86.5 -36.5t88 37q35 34 35 85.5t-36 87.5t-87 36zM207 185v-25h-109v25h109zM207 137v-26h-109v26h109z" />
    <glyph glyph-name="fi-brands-creative-commons-pd-alt" unicode="&#xe4b9;" 
d="M300 150q0 -63 -43 -105q-45 -45 -106.5 -45t-106 44t-44.5 106t43.5 106t106.5 44t106.5 -43.5t43.5 -106.5zM238 64q35 34 35 85.5t-36 87.5t-87 36t-87 -36.5t-36 -86.5t36.5 -86.5t86.5 -36.5t88 37zM189 192q20 0 31 -10t11 -31t-11 -31.5t-31 -10.5h-32v83h32z
M190 127q11 0 16 6.5t5 17.5t-5.5 17.5t-16.5 6.5h-11v-48h12zM151 164q0 -11 -6 -18q-9 -10 -28 -10h-16v-27h-21v83h41q16 0 23 -7.5t7 -20.5zM118 152q6 0 9.5 3.5t3.5 8.5q0 13 -14 13h-17v-25h18z" />
    <glyph glyph-name="fi-brands-creative-commons-pd" unicode="&#xe4b8;" 
d="M150 300q-41 0 -75.5 -20t-54.5 -54.5t-20 -75.5t20 -75.5t54.5 -54.5t75.5 -20t75.5 20t54.5 54.5t20 75.5t-20 75.5t-54.5 54.5t-75.5 20zM150 28q-33 0 -61 16.5t-44.5 44.5t-16.5 61q0 21 7 40l48 -21q-2 -10 -2 -20q0 -28 12 -46q11 -16 29 -24q15 -7 31 -7
q24 0 43 13l6 5l-22 27l-2 -2q-9 -8 -20 -8q-16 0 -25 14q-8 12 -8 29l132 -58q-16 -29 -44.5 -46.5t-62.5 -17.5zM132 179q9 16 24 16q9 0 17 -5l4 -4l25 25q-20 17 -48 17q-21 0 -36 -8.5t-25 -22.5l-45 20q17 25 44 40t59 15t60 -16.5t44.5 -44.5t16.5 -61q0 -16 -4 -31z
" />
    <glyph glyph-name="fi-brands-creative-commons-remix" unicode="&#xe4ba;" 
d="M150 300q63 0 106.5 -43.5t43.5 -106.5t-43 -106q-45 -44 -106.5 -44t-106 44t-44.5 105.5t44 106t106 44.5zM150 273q-51 0 -87 -36.5t-36 -86.5t36.5 -86.5t86.5 -36.5t88 37q35 34 35 85.5t-36 87.5t-87 36zM251 146v-42l-41 -18l-83 34l-39 -16l-38 17v38l36 15v43
l40 18l92 -38v-37zM205 98v28l-69 28v-28zM210 133l24 10l-22 9l-24 -10zM242 110v26l-27 -11v-27z" />
    <glyph glyph-name="fi-brands-creative-commons-sa" unicode="&#xe4bb;" 
d="M150 300q63 0 106.5 -43.5t43.5 -106.5t-43 -106q-45 -44 -106.5 -44t-106 44t-44.5 105.5t44 106t106 44.5zM150 273q-51 0 -87 -36.5t-36 -86.5t36.5 -86.5t86.5 -36.5t88 37q35 34 35 85.5t-36 87.5t-87 36zM83 171q5 28 22.5 43t43.5 15q36 0 56.5 -23t20.5 -58
t-21.5 -57.5t-56.5 -22.5q-25 0 -43.5 15t-22.5 43h38q1 -27 33 -27q16 0 25.5 13.5t9.5 37t-9 36t-25 12.5q-30 0 -34 -27h11l-30 -30l-29 30h11z" />
    <glyph glyph-name="fi-brands-creative-commons-sampling-plus" unicode="&#xe4bd;" 
d="M150 300q-63 0 -106.5 -44t-43.5 -106t44.5 -106t106 -44t106.5 45q43 42 43 105t-43.5 106.5t-106.5 43.5zM150 273q51 0 87 -36t36 -87.5t-35 -85.5q-37 -37 -87.5 -37t-87 36.5t-36.5 86.5t36 86.5t87 36.5zM215 149q-5 0 -7 -5l-2 -5l-7 56q0 2 -2 4t-4.5 2t-4.5 -2
t-3 -5l-2 -31l-3 42q-1 3 -3 4.5t-4.5 1.5t-4.5 -1.5t-2 -4.5l-2 -27l-4 57q0 3 -2 4.5t-5 1.5t-5 -1.5t-2 -4.5l-3 -51l-3 40q0 3 -2 5t-5 2t-5 -2t-2 -5l-3 -48l-2 34q-1 3 -3 5t-4.5 2t-4.5 -2t-2 -5l-5 -54l-1 7q-1 6 -6 6.5t-8 -4.5l-7 -16h-27v-14h31q4 0 6 3l7 -44
q0 -2 2 -4t5 -2t4.5 2t2.5 5l2 26l3 -47q1 -3 3 -5t4.5 -2t4.5 2t2 5l3 42l3 -44q0 -3 2 -5t5 -2t5 2t2 5l3 49l3 -44q0 -3 2 -4.5t5 -1.5t5 1.5t2 4.5l3 36l3 -39q0 -3 2 -5t4.5 -2t4.5 2t3 5l4 50l1 -14q1 -2 2.5 -4t4 -2t4.5 1t3 3l11 27h30v14h-35zM168 145h-13v-13
q0 -2 -1.5 -3t-3.5 -1t-3.5 1t-1.5 3v13h-13q-2 0 -3 1.5t-1 3.5t1 3.5t3 1.5h13v13q0 2 1.5 3t3.5 1t3.5 -1t1.5 -3v-13h13q2 0 3 -1.5t1 -3.5t-1 -3.5t-3 -1.5z" />
    <glyph glyph-name="fi-brands-creative-commons-sampling" unicode="&#xe4bc;" 
d="M150 273q51 0 87 -36t36 -87.5t-35 -85.5q-38 -37 -88 -37t-86.5 36.5t-36.5 86.5t36 86.5t87 36.5v0zM150 300q-63 0 -106.5 -44t-43.5 -106t44.5 -106t106 -44t106.5 45q43 42 43 105t-43.5 106.5t-106.5 43.5zM153 241q-3 0 -5 -1.5t-2 -4.5l-3 -51l-3 40q0 3 -2 5
t-5 2t-5 -2t-2 -5l-3 -48l-2 34q-1 3 -3 5t-4.5 2t-4.5 -2t-2 -5l-5 -54l-1 7q-1 6 -6 6.5t-8 -4.5l-8 -16h-26v-14h31q4 0 6 3l7 -44q0 -2 2 -4t5 -2t4.5 2t2.5 5l2 26l3 -47q1 -3 3 -5t4.5 -2t4.5 2t2 5l3 42l3 -44q0 -3 2 -5t5 -2t5 2t2 5l3 49l3 -44q0 -3 2 -4.5t5 -1.5
t5 1.5t2 4.5l3 36l3 -39q0 -3 2 -5t4.5 -2t4.5 2t3 5l4 50l1 -14q1 -2 2.5 -4t4 -2t4.5 1t3 3l11 27h30v14h-35q-5 0 -7 -5l-2 -5l-7 56q0 2 -2 4t-4.5 2t-4.5 -2t-3 -5l-2 -31l-3 42q-1 3 -3 4.5t-4 1.5v0q-3 0 -5 -1.5t-2 -4.5l-2 -27l-4 57q0 3 -2 4.5t-5 1.5z" />
    <glyph glyph-name="fi-brands-creative-commons-share" unicode="&#xe4be;" 
d="M256 256q-43 44 -105.5 44t-106.5 -44.5t-44 -106t44.5 -105.5t106 -44t106.5 44q43 43 43 106t-44 106zM238 64q-38 -37 -88 -37t-86.5 36.5t-36.5 86.5t36 86.5t87 36.5t87 -36t36 -87.5t-35 -85.5zM211 193v0h-32v33q0 3 -2.5 5.5t-6.5 2.5h-82q-3 -1 -5.5 -3t-2.5 -5
v-111q0 -3 2.5 -5.5t6.5 -2.5h32v-33q0 -3 2.5 -5.5t6.5 -2.5h81q4 0 6.5 2.5t2.5 5.5v111q0 3 -2.5 5.5t-6.5 2.5zM129 193q-3 -1 -5.5 -3t-2.5 -5v-62h-24v94h65v-24h-33zM203 83h-65v94h65v-94z" />
    <glyph glyph-name="fi-brands-creative-commons-zero" unicode="&#xe4bf;" 
d="M150 236q-34 0 -50 -28q-12 -22 -12 -58t12 -58q16 -28 50 -28t50 28q12 22 12 58t-12 58q-16 28 -50 28zM123 150q0 21 4 33q6 21 23 21q3 0 6 -1q6 -5 1 -13l-33 -61q-1 9 -1 21zM150 96q-3 0 -6 1l-2 1q-11 4 -4 14l37 64q2 -11 2 -26q0 -21 -4 -33q-6 -21 -23 -21z
M289 208q-11 27 -32 48q-44 44 -107 44t-106 -44q-21 -21 -32.5 -48.5t-11.5 -57.5t11 -57t33 -48.5t49 -33t56.5 -11.5t57.5 11.5t49.5 32.5t32.5 48t11 58t-11 58zM238 64q-19 -18 -41.5 -27t-46.5 -9t-46.5 9t-40 26.5t-27 40t-9.5 46.5t9.5 46.5t27.5 40.5q35 36 86 36
t87 -36q18 -18 27 -40t9 -47q0 -52 -35 -86z" />
    <glyph glyph-name="fi-brands-creative-commons" unicode="&#xe4b2;" 
d="M150 300q33 0 64 -15t53 -41.5t29 -58.5q4 -17 4 -35q0 -31 -11 -58t-32.5 -48t-49.5 -32.5t-57 -11.5q-36 0 -68 17t-53.5 46t-26.5 65q-2 11 -2 22q0 36 16.5 67.5t45 53t63.5 27.5q12 2 25 2zM150 273q-32 0 -60.5 -17t-45.5 -45.5t-17 -60.5t17 -60.5t45.5 -45
t61 -16.5t61 16.5t45 44.5t16.5 61t-16.5 61.5t-45 45t-61.5 16.5zM148 175l-20 -11q-3 7 -7.5 10t-8.5 3q-20 0 -20 -27q0 -12 5 -19.5t15 -7.5q13 0 18 13l19 -9q-6 -11 -16.5 -17.5t-23.5 -6.5q-20 0 -32 12.5t-12 34t12 34.5t31 13q28 0 40 -22zM235 175l-20 -11
q-3 7 -7.5 10t-9.5 3q-20 0 -20 -27q0 -12 5 -19.5t15 -7.5q13 0 19 13l18 -9q-6 -11 -16.5 -17.5t-22.5 -6.5q-20 0 -32.5 12.5t-12.5 34t12.5 34.5t31.5 13q28 0 40 -22z" />
    <glyph glyph-name="fi-brands-css3-alt" unicode="&#xe4db;" 
d="M44 241l19 -217l87 -24l87 24l19 217h-212zM83 197h67v-27h-64zM150 116h33l-3 -34l-30 -8v42zM150 143v27h37l-2 -27h-35zM88 143h62v-27h-60zM220 38l-70 -20v28l-55 15l-3 42h26l2 -21l30 -8v-28l54 15l13 136h-67v26h87zM217 197l-13 -136l-54 -15v28l30 8l3 34h-33
v27h35l2 27h-37v27h67zM150 143v0v-27v27zM150 197v0v-27v27zM150 74v0v-28v28zM94 300h32v-13h-19v-14h19v-13h-32v40zM132 300h33v-12h-19v-2h19v-27h-33v12h19v3h-19v26zM171 300h32v-12h-18v-2h18v-27h-32v12h19v3h-19v26zM217 197l-13 -136l-54 -15v28l30 8l3 34h-33
v27h35l2 27h-37v27h67z" />
    <glyph glyph-name="fi-brands-css3" unicode="&#xe4da;" 
d="M87 113l4 -42l59 -16l59 16l6 69h-183l-5 53h193l5 54h-203l-5 53h266l-24 -270l-109 -30l-109 30l-7 83h53z" />
    <glyph glyph-name="fi-brands-dailymotion" unicode="&#xe4fb;" 
d="M201 287v-94q-21 27 -60 27q-41 0 -70 -29q-17 -17 -25.5 -37.5t-8.5 -43.5q0 -51 37 -85q27 -25 66 -25q19 0 34 6t29 19v-24h60v299zM154 57q-24 0 -39.5 15.5t-15.5 37.5t15.5 38t37 16t36.5 -15.5t15 -38.5t-14.5 -38t-34.5 -15z" />
    <glyph glyph-name="fi-brands-deezer" unicode="&#xe50f;" 
d="M300 248h-65v-38h65v38zM300 195h-65v-38h65v38zM300 143h-65v-38h65v38zM65 90h-65v-38h65v38zM143 90h-65v-38h65v38zM222 90h-65v-38h65v38zM300 90h-65v-38h65v38zM222 143h-65v-38h65v38zM143 143h-65v-38h65v38zM143 195h-65v-38h65v38z" />
    <glyph glyph-name="fi-brands-delphi" unicode="&#xe516;" 
d="M134 188q-10 -4 -19 -12q-11 -8 -17 -19q-8 -13 -9 -28q0 -9 2.5 -19.5t9.5 -22.5q1 -1 2 0l4 2l-7 11q-7 17 -6 32q1 7 2 12q7 19 25 35l14 10zM134 188q-10 -4 -19 -12q-11 -8 -17 -19q-8 -13 -9 -28q0 -9 2.5 -19.5t9.5 -22.5q1 -1 2 0l4 2l-7 11q-7 17 -6 32
q1 7 2 12q7 19 25 35l14 10zM134 188q-10 -4 -19 -12q-11 -8 -17 -19q-8 -13 -9 -28q0 -9 2.5 -19.5t9.5 -22.5q1 -1 2 0l4 2l-7 11q-7 17 -6 32q1 7 2 12q7 19 25 35l14 10zM134 188q-10 -4 -19 -12q-11 -8 -17 -19q-8 -13 -9 -28q0 -9 2.5 -19.5t9.5 -22.5q1 -1 2 0l4 2
l-7 11q-7 17 -6 32q1 7 2 12q7 19 25 35l14 10zM160 300q-40 2 -76 -15.5t-58.5 -50.5t-25 -73.5t15 -76.5t50.5 -58.5t73.5 -25t76.5 15t58.5 50.5t25 73.5t-15 76.5t-50.5 58.5t-74 25.5zM173 261q8 0 16 -1l-31 -58q0 -1 -1 -1q-13 1 -26 -3h-1l16 60q14 3 27 3zM127 123
q1 -3 2 -9l1 -5l8 2l16 -33l-26 2q-10 0 -16 -2t-8 -5l-4 4q-8 8 -12.5 18t-6.5 20q-1 8 0 16q1 20 13 36q10 15 25 23q11 5 22 7q8 2 16 1q14 -1 28 -8q9 -5 16 -11l3 -2l-76 -52q-1 -1 -1 -2zM96 234q17 13 38 20l-10 -57q0 -1 -1 -1v-1q-13 -5 -23 -15zM66 201q1 1 2 3
l8 10l10 11l11 -48l-1 -1q-7 -8 -12 -18l-19 40zM57 184q1 1 1 2v0l24 -31q1 -1 0 -2q-3 -8 -4 -15l-28 25q3 11 7 21zM47 126v7q0 9 1 19l29 -18q1 -1 1 -2q-1 -10 0 -17zM52 98q-3 9 -4 18l30 -6q1 0 1 -1l3 -11h-30zM64 70q-5 8 -9 17l28 7q1 0 2 -1l5 -9zM161 55
q-2 -4 -6 -11l-1 -3l-27 4l-13 1q-11 0 -20 -3v0l11 26q1 2 4 4t10 3t13 0l20 -2q1 0 1 -1l8 -17v-1zM200 42q-1 -4 -6 -8t-12 -7q-2 -1 -2 1l-37 80l8 1l12 -12l11 -8q7 -6 13 -14q10 -14 13 -30q1 -1 0 -3zM220 132q0 -1 -1 -1l-86 -17l-2 8v1l82 56zM192 192q-1 -1 -2 -1
q-12 7 -24 9l39 57q22 -6 41 -20zM125 73q-7 -1 -13 -3h-2l-8 -17l1 -1l11 16l1 1q13 4 21 3h-2q-4 1 -9 1zM134 188q-10 -4 -19 -12q-11 -8 -17 -19q-8 -13 -9 -28q0 -9 2.5 -19.5t9.5 -22.5q1 -1 2 0l4 2l-7 11q-7 17 -6 32q1 7 2 12q7 19 25 35l14 10zM134 188
q-10 -4 -19 -12q-11 -8 -17 -19q-8 -13 -9 -28q0 -9 2.5 -19.5t9.5 -22.5q1 -1 2 0l4 2l-7 11q-7 17 -6 32q1 7 2 12q7 19 25 35l14 10zM134 188q-10 -4 -19 -12q-11 -8 -17 -19q-8 -13 -9 -28q0 -9 2.5 -19.5t9.5 -22.5q1 -1 2 0l4 2l-7 11q-7 17 -6 32q1 7 2 12
q7 19 25 35l14 10z" />
    <glyph glyph-name="fi-brands-dev" unicode="&#xe523;" 
d="M80 182q-3 3 -7 3h-12v-70h12q4 0 7.5 3t3.5 9v46q0 6 -4 9v0zM271 300h-242q-12 0 -20.5 -8.5t-8.5 -20.5v-242q0 -12 8.5 -20.5t20.5 -8.5h242q12 0 20.5 8.5t8.5 20.5v242q0 12 -8.5 20.5t-20.5 8.5zM103 126q0 -11 -7 -20q-8 -11 -25 -11h-31v111h32q16 0 24 -12
q7 -8 7 -20v-48zM171 186h-36v-26h22v-20h-22v-25h36v-20h-42q-6 0 -10 3.5t-4 9.5v84q0 5 4 9t9 5h43v-20zM240 109q-4 -10 -10 -13t-12 0.5t-10 12.5l-25 97h21l20 -77l20 77h22z" />
    <glyph glyph-name="fi-brands-devianart" unicode="&#xe524;" 
d="M112 160l-4 5h-51v75h92l8 5l26 50l5 5h55v-55l-55 -105l4 -5h51v-75h-92l-8 -5l-26 -50l-5 -5h-55v55z" />
    <glyph glyph-name="fi-brands-digg" unicode="&#xe552;" 
d="M84 229v-17h24h2q1 1 1 3v18h-24l-2 -1t-2 -3h1zM84 193v-92h24h2q1 1 1 3v93h-24l-2 -1q-1 0 -1 -3zM47 229v-32h-44l-1 -1q-2 0 -2 -3v-92h72h2q1 1 1 3v129h-25l-1.5 -1t-1.5 -3zM47 125q0 -4 -3 -4h-17v52q0 3 3 3h17v-51zM121 193v-92h47v-13h-44h-2q-1 -1 -1 -3
v-18h72l1 1q2 1 2 3v126h-72l-2 -1q-1 0 -1 -3zM148 173q0 2 2 3h1h17v-51q0 -4 -3 -4h-17v52zM209 197q-1 0 -2 -0.5t-1 -3.5v-92h47v-13h-44h-2q-1 -1 -1 -3v-18h72l1 1q2 1 2 3v126h-72zM253 125q0 -4 -3 -4h-17v52q0 3 3 3h17v-51zM289 194h-1v2h4v-2h-1v-7h-2v7z
M293 196h2l1 -6l1 6h2l1 -9h-2v7l-1 -7h-1l-1 7l-1 -7h-2z" />
    <glyph glyph-name="fi-brands-dimension" unicode="&#xe55b;" 
d="M124 175q3 -9 3 -18.5t-3 -18t-9 -14t-14 -8.5t-17 -3l-12 1v83h12q9 0 17 -2t14 -7.5t9 -12.5zM247 296h-194q-22 0 -37.5 -15.5t-15.5 -37.5v-186q0 -22 15.5 -37.5t37.5 -15.5h194q22 0 37.5 15.5t15.5 37.5v186q0 22 -15.5 37.5t-37.5 15.5zM152 132q-4 -11 -11 -19
t-16 -13.5t-19.5 -8t-20.5 -2.5l-40 1q-1 0 -1 2v128q0 1 1 1l39 1q25 0 40.5 -8t23.5 -23t8 -33q0 -13 -4 -26zM257 91q0 -1 -2 -1h-24q-2 -1 -2 1v58q0 5 -2 9.5t-5.5 7t-8 2t-9 -2t-8.5 -4.5v-70q0 -1 -1 -1h-25q-1 -1 -1 1l-1 83v14q-1 1 0 1l1 1h21l2 -1q1 0 1 -1l2 -7
q6 5 13 8t14 3t13.5 -2.5t11.5 -7t7.5 -12t2.5 -19.5v-60z" />
    <glyph glyph-name="fi-brands-discord" unicode="&#xe564;" 
d="M254 245q-29 14 -61 19h-1q-4 -7 -8 -16q-34 5 -68 0q-3 7 -8 16h-1q-32 -5 -61 -19v0q-28 -42 -39 -86q-10 -40 -6 -85h1q34 -26 75 -38h1q8 12 15 25q0 1 -1 1q-11 5 -23 11q-1 1 0 2l5 4h1q36 -17 75 -17t75 17h1l5 -4v-1v-1q-11 -6 -24 -11q-1 0 0 -1q7 -13 15 -25h1
q41 12 75 38h1q9 93 -45 171v0zM100 108q-11 0 -19 9t-8 21.5t8 21.5t19.5 9t19 -9t7.5 -21.5t-8 -21.5t-19 -9zM200 108q-11 0 -19 9t-8 21.5t8 21.5t19 9t19 -9t8 -21.5t-8 -21.5t-19 -9z" />
    <glyph glyph-name="fi-brands-docker" unicode="&#xe57c;" 
d="M297 176q-2 2 -6 4q-8 3 -18 3q-7 0 -13 -1q-2 13 -12 23q-5 6 -9 9l-5 2l-3 -4q-5 -8 -7 -18q-5 -18 5 -33q-5 -3 -13 -4q-5 -1 -9 -1h-198q-3 0 -6 -3t-3 -7q0 -26 9 -50q10 -27 30 -39q11 -7 28 -11t36.5 -4t37.5 4q26 4 48 17q19 11 33 27q18 21 32 55h2q21 0 34 12
q6 6 9 14l1 3zM28 162h26q3 0 2 2l1 23q0 3 -3 3v0h-26q-3 0 -3 -3v0v-23q0 -2 3 -2v0zM64 162h27q2 0 2 2v23q0 3 -2 3v0h-27q-2 0 -2 -3v-23q0 -2 2 -2zM101 162h27q2 0 2 2v23q0 3 -2 3h-27q-2 0 -2 -3v0v-23q0 -2 2 -2v0zM138 162h26q3 0 3 2v23q0 3 -3 3v0h-26
q-2 0 -2 -3v0v-23q0 -2 2 -2v0zM64 195h27q2 0 2 3v23q0 3 -2 3h-27q-2 0 -2 -3v-23q0 -3 2 -3zM101 195h27q2 0 2 3v23q0 3 -2 3v0h-27q-2 0 -2 -3v0v-23q0 -3 2 -3zM138 195h26q3 0 3 3v23q0 3 -3 3h-26q-2 0 -2 -3v0v-23q0 -3 2 -3zM138 229h26q3 0 3 3v23q0 3 -3 3h-26
q-2 0 -2 -3v-23q0 -3 2 -3zM175 162h26q3 0 3 2v23q0 3 -3 3v0h-26q-3 0 -3 -3v0v-23q0 -2 3 -2z" />
    <glyph glyph-name="fi-brands-dribbble" unicode="&#xe5ae;" 
d="M150 300q-41 0 -75.5 -20t-54.5 -54.5t-20 -75.5t20 -75.5t54.5 -54.5t75.5 -20t75.5 20t54.5 54.5t20 75.5t-20 75.5t-54.5 54.5t-75.5 20zM249 231q14 -17 21.5 -37.5t7.5 -42.5v0q-15 3 -31 5q-32 3 -58 -1l-11 25q30 13 52 31q12 10 19 20zM168 199q-21 38 -48 75v0
q14 4 30 4q24 0 46 -8.5t39 -23.5q-6 -9 -17 -18q-21 -18 -50 -29zM96 266q6 -9 17 -25q16 -25 30 -49q-37 -10 -78 -14q-22 -2 -40 -2v0q6 30 24.5 53.5t46.5 36.5zM22 154q17 -1 44 2q47 4 87 16q5 -9 11 -22l-5 -1q-42 -14 -76 -49q-17 -18 -28 -36q-16 18 -24.5 40
t-8.5 46v4zM172 129v0h1q19 -49 27 -97q-24 -10 -50 -10q-22 0 -42 7t-37 20q8 15 24 32q31 32 77 48zM221 44q-2 13 -6 31q-8 31 -18 60q25 4 53 0q16 -2 26 -5q-4 -27 -18.5 -49.5t-36.5 -36.5z" />
    <glyph glyph-name="fi-brands-dropbox" unicode="&#xe5b7;" 
d="M150 230l-75 -48l75 -48l-75 -48l-75 48l75 48l-75 48l75 47zM75 70l75 48l75 -48l-75 -47zM150 134l75 48l-75 48l75 47l75 -47l-75 -48l75 -48l-75 -48z" />
    <glyph glyph-name="fi-brands-drupal" unicode="&#xe5c0;" 
d="M265 115v0q0 -31 -15.5 -57.5t-42 -42t-57.5 -15.5t-57.5 15.5t-42 42t-15.5 57.5q0 25 11 48q8 19 25 40q10 12 32 33v0q21 21 29 31q14 18 18 33q4 -15 18 -32q8 -11 29 -32v0q22 -21 32 -33q17 -21 25 -40q11 -23 11 -48zM226 93q4 10 4 25q0 21 -13 41q-9 13 -26 33
q-13 14 -28 29l-13 13l-22 -22q-5 -5 -6 -9q-3 -7 4 -14l15 -16q65 -69 71 -78l1 -2q2 -3 3.5 -4t4 -1t5.5 5zM189 69q1 15 -9 26l-30 33l-30 -33q-4 -6 -6.5 -12.5t-2.5 -13.5q0 -17 11.5 -28.5t27.5 -11.5t27.5 11.5t11.5 28.5zM131 142q2 2 0 4l-32 35q-17 -17 -24 -35
q-5 -15 -4 -29q1 -12 5.5 -20.5t7.5 -8.5v0q2 0 3 2q4 11 42 50z" />
    <glyph glyph-name="fi-brands-ebay" unicode="&#xe5db;" 
d="M190 146q-11 0 -16.5 -2.5t-5.5 -8t4 -9.5t12 -4q12 0 18 6t6 17v2zM224 128v-13h-14v10q-6 -7 -13 -9.5t-16 -2.5q-14 0 -21.5 6t-7.5 15q0 12 9 17t28 6h19v1q0 16 -19 16q-7 0 -11.5 -3t-4.5 -7h-16q1 11 12 16q8 4 22 4t23 -6t9 -19zM60 154q-1 10 -7 15t-15 5
t-15 -5t-7 -15h44zM15 144q1 -10 7.5 -15.5t16.5 -5.5q7 0 12 2.5t7 8.5h16q-3 -11 -13 -16t-22 -5q-20 0 -29.5 9.5t-9.5 25.5t9.5 26t29.5 10q17 0 27 -9t10 -27v-4h-61zM114 123q11 0 17.5 7t6.5 18.5t-6.5 18.5t-17 7t-17 -7t-6.5 -18.5t6.5 -18.5t16.5 -7zM76 210h15
v-38q9 12 27 12q14 0 25 -9.5t11 -25.5t-10 -26t-26 -10q-18 0 -27 11l-1 -9h-15l1 16v79zM300 181l-47 -91h-16l13 25l-35 66h18l25 -51l26 51h16z" />
    <glyph glyph-name="fi-brands-elementor" unicode="&#xe5e7;" 
d="M150 300q-41 0 -75.5 -20t-54.5 -54.5t-20 -75.5t20 -75.5t54.5 -54.5t75.5 -20t75.5 20t54.5 54.5t20 75.5v0q0 41 -20 75.5t-54.5 54.5t-75.5 20zM113 88h-25v125h25v-125zM213 88h-75v25h75v-25zM213 138h-75v25h75v-25zM213 188h-75v25h75v-25z" />
    <glyph glyph-name="fi-brands-ethereum" unicode="&#xe612;" 
d="M242 147l-92 -54l-92 54l92 153zM242 130l-92 -130l-92 130l92 -55z" />
    <glyph glyph-name="fi-brands-etsy" unicode="&#xe614;" 
d="M107 269q0 4 1.5 5.5t6.5 1.5h93q12 0 19.5 -10t12.5 -30l5 -21h16q3 59 5 85v0l-23 -2q-25 -2 -40 -2h-120l-64 2v-18l22 -4q11 -2 15 -5.5t5 -14.5l1 -28v-80q0 -67 -1 -107v0q0 -9 -4.5 -13.5t-15.5 -6.5l-22 -4v-17l64 2h107q15 0 49 -1l31 -1q1 10 5 47l6 41h-15
l-16 -36q-9 -19 -23 -26q-10 -4 -29 -4h-60q-16 0 -23.5 6t-7.5 19v93h25q26 0 35.5 -1t14.5 -5t7 -15l5 -21h18l-1 53l2 54h-18l-5 -24q-3 -11 -7 -14.5t-15 -5.5q-21 -2 -61 -1v109z" />
    <glyph glyph-name="fi-brands-evernote" unicode="&#xe619;" 
d="M102 233q0 -8 -3.5 -11.5t-10.5 -3.5h-32h-17.5t-6.5 -2q-1 0 0 0l72 74q1 1 1 0q-2 -4 -2.5 -6.5t-0.5 -17.5v-33zM170 9q-11 7 -15 18q-2 6 -2 13q0 16 11 27t26 11q5 0 8.5 -3.5t3.5 -9t-6 -8.5l-4 -2h-1q-6 0 -8 -2q-4 -4 -4 -9.5t4 -9.5q7 -7 17 -7q12 0 21 9t9 21
t-6.5 21.5t-16.5 14.5q-2 0 -7 2l-9 1q-12 2 -22 8q-15 10 -16 25l-3 -10q-3 -11 -8 -19q-6 -11 -12 -15q-3 -2 -6 -2l-6 -1q-19 -1 -37.5 5.5t-32.5 19.5l-3 4q-4 5 -8 12q-5 10 -8 23l-1 4q-3 18 -5 27l-1 11q0 8 5 14t12 7h50q12 0 17 5t5 17l1 52q0 7 6 12t15 5
q13 0 20.5 -2t11.5 -6t6 -9l1 -4l47 -8q19 -3 29 -9q18 -9 21 -29q7 -37 9 -78q1 -30 -1 -59q-1 -23 -2 -23q-3 -22 -12 -37q-8 -13 -19 -22q-9 -7 -21 -10q-8 -3 -16 -4h-7q-16 0 -30 9zM227 172q-6 1 -11 -1.5t-7 -6.5q-1 -3 -0.5 -3.5l1.5 -1.5q3 -2 15 -3t16 -1l1.5 1.5
t-0.5 3.5q0 5 -4.5 8.5t-10.5 3.5z" />
    <glyph glyph-name="fi-brands-facebook-messenger" unicode="&#xe676;" 
d="M150 300q-42 0 -76 -19t-54 -52t-20 -74q0 -33 12.5 -60.5t34.5 -47.5q4 -4 4 -9l1 -26q0 -7 5.5 -10.5t11.5 -0.5l30 13q3 2 8 1q21 -6 43 -6q42 0 76 19t54 52t20 74.5t-20 74.5t-54 52t-76 19zM240 188l-44 -70q-5 -8 -15 -10t-18 4l-35 26q-2 2 -5 2t-5 -2l-48 -36
q-3 -2 -6 -1t-4.5 4.5t0.5 6.5l44 70q5 8 15 10t18 -4l35 -26q2 -2 5 -2t5 2l48 36q3 2 6 1t4.5 -4.5t-0.5 -6.5z" />
    <glyph glyph-name="fi-brands-facebook" unicode="&#xe675;" 
d="M300 149q0 -37 -16.5 -68.5t-45.5 -53t-65 -26.5v104h35l7 44h-42v28q0 10 6 16.5t19 6.5h19v37l-11 1q-13 2 -23 2q-26 0 -41 -15.5t-15 -42.5v-33h-38v-44h38v-104q-36 5 -65 26.5t-45.5 53t-16.5 68.5q0 41 20 75.5t54.5 54.5t75.5 20t75.5 -20t54.5 -54.5t20 -75.5z
" />
    <glyph glyph-name="fi-brands-fedex" unicode="&#xe688;" 
d="M298 119q0 4 -2 6t-5.5 2t-5.5 -2t-2 -5.5t2 -6t5.5 -2.5t5.5 2.5t2 5.5v0v0zM288 119v-5h-1v11h4q3 0 3 -2.5t-2 -3.5v0q2 0 2 -2l1 -3h-2l-1 3q-1 2 -2 2h-2zM290 120q3 0 3 2t-3 2h-2v-4h2zM281 119q0 4 2.5 7t6.5 3t7 -3t3 -7t-3 -6.5t-7 -2.5t-6.5 2.5t-2.5 6.5v0z
M247 111l-11 13l-11 -13h-23l23 26l-23 25h24l11 -12l11 12h23l-23 -25l23 -26h-24zM202 174v18h-63v-33q-6 6 -15.5 6t-16 -5.5t-9.5 -13.5q-3 9 -10 14t-16.5 5t-16 -3.5t-10.5 -9.5v10h-24v12h26v18h-47v-81h21v34h22q-1 -4 -1 -8q0 -12 8 -20t21 -8q20 0 27 18h-18
q-2 -3 -4 -4t-6 -1t-7 3.5t-3 7.5h37q1 -10 8.5 -17.5t17.5 -7.5t16 9v-6h63v18h-26v16h26v17h-26v12h26zM61 145q0 4 3 6t7 2q8 0 10 -8h-20zM127 124q-5 0 -8 3.5t-3 9.5t3 10t8.5 4t8 -4t2.5 -10t-2.5 -9.5t-8.5 -3.5z" />
    <glyph glyph-name="fi-brands-figma" unicode="&#xe697;" 
d="M229 197q12 8 18.5 20t6.5 27q0 23 -16.5 39.5t-39.5 16.5h-96q-23 0 -39.5 -16.5t-16.5 -39.5q0 -15 6.5 -27t18.5 -20q-12 -8 -18.5 -20.5t-6.5 -26.5t6.5 -26.5t18.5 -20.5q-12 -8 -18.5 -20t-6.5 -27q0 -23 16.5 -39.5t40 -16.5t40 16.5t16.5 40.5v52q16 -15 38 -15
h1q23 0 39.5 16.5t16.5 39.5q0 14 -6.5 26.5t-18.5 20.5zM159 282h39q16 0 27 -11.5t11 -27t-11 -26.5t-27 -11h-39v76zM64 244q0 15 11 26.5t27 11.5h39v-76h-39q-16 0 -27 11t-11 27zM64 150q0 16 11 27t27 11h39v-76h-39q-16 0 -27 11t-11 27zM141 57q0 -16 -11.5 -27.5
t-27.5 -11.5t-27 11.5t-11 27t11 26.5t27 11h39v-37zM198 112h-1q-16 0 -27 11t-11 27t11 27t27 11h1q16 0 27 -11t11 -27t-11 -27t-27 -11zM102 112v0h39h-39z" />
    <glyph glyph-name="fi-brands-firefox-browser" unicode="&#xe6e1;" 
d="M285 199q-5 12 -13.5 22.5t-15.5 14.5q11 -22 14 -44v0q-6 16 -17 31q-7 9 -21 25q-20 23 -29 37l-5 9l-2 6v0h-1q-22 -13 -35 -35q-10 -18 -14 -38q-15 -1 -29 -8q-3 -1 -2 -3.5t2.5 -3t2.5 0.5v0q15 6 30 6q21 1 38 -9.5t26 -27.5q-7 5 -16.5 7.5t-18.5 1.5
q19 -10 26.5 -29t3 -39t-20.5 -32q-17 -14 -43 -13q-14 1 -26 7q-14 7 -23.5 19.5t-10.5 27.5l2 4q2 5 6 9q6 5 15 8q11 4 25 4q3 0 10 6.5t7 9.5q0 1 -6 4q-22 11 -29 17l-10 10l-3 3q-6 17 -1 35q-9 -4 -19 -11q-6 -5 -12 -11l-4 -5q-4 5 -5 19q-1 10 0 18l-5 -3
q-7 -5 -14.5 -12.5t-13.5 -15.5v0v0q-14 -21 -19 -45q-3 -14 -4 -27v-4q0 -39 19.5 -72.5t53 -53t72.5 -19.5q36 0 66.5 16t51 43.5t25.5 61.5l1 5q2 19 -0.5 38t-8.5 35z" />
    <glyph glyph-name="fi-brands-firefox" unicode="&#xe6e0;" 
d="M181 112q14 0 27.5 7.5t22.5 18.5q12 14 15 34.5t-3 39.5q-4 12 -10 22t-16 19q-21 21 -50 29t-59 3q-22 -4 -38 -13v-1v0v0v0v0q9 9 22.5 15.5t29 10t31.5 3.5q33 0 65 -16q21 -10 38 -27q13 -14 22 -29q11 -18 17 -38v-1q5 -19 5 -38q0 -41 -20 -75.5t-54.5 -55
t-75.5 -20.5q-37 0 -68.5 16.5t-52.5 45t-27 63.5l-1 6q-1 9 -1 18q0 31 11 57q7 17 19 29l1 1q5 6 10 8l-2 -3q-4 -8 -6 -16l-3 -7q-4 -13 -5 -24l6 16l1 2q8 16 21 28q6 6 13 11q13 8 28 12.5t28 3.5q20 0 30 -9l-2 -1q-16 -7 -30 -22t-20 -35q-8 -23 -5 -45q2 -12 8 -24
q-5 12 -4.5 26t7.5 24.5t16.5 14.5t16.5 2q-12 -10 -14.5 -25.5t5 -30t23.5 -23.5q14 -7 28 -7z" />
    <glyph glyph-name="fi-brands-flaticon-1" unicode="&#xe6fc;" 
d="M51 117h-12v66h12v-66zM103 117h-11v5q-5 -6 -14 -6t-15 7t-6 16.5t6 16.5t15 7t14 -7v5h11v-44zM69 139q0 -5 3 -8.5t8.5 -3.5t8.5 3.5t3 9t-3.5 8.5t-8 3.5t-8 -3.5t-3.5 -9v0zM162 176q0 -3 -2 -5.5t-5 -2.5t-5.5 2.5t-2.5 5.5t2.5 5t5.5 2t5 -2t2 -5v0zM161 118h-12
v44h12v-44zM34 171q-4 2 -9 1.5t-5 -5.5v-6h14v-10h-14v-34h-12v34h-8v10h8v6q0 8 4 12.5t12 4.5q5 0 10 -2v-11zM133 127q-6 0 -6 8v16h16v10h-16v13h-12v-13h-6v-10h6v-17q0 -18 16 -18q6 0 12 3l-5 9q-2 -1 -5 -1zM253 139q0 -9 -7 -16t-17 -7t-17 6.5t-7 16.5t6.5 17
t17 7t17.5 -7t7 -17zM217 139q0 -5 3.5 -8.5t8.5 -3.5t8 3.5t3 9t-3 9t-8 3.5t-8.5 -3.5t-3.5 -9.5v0zM300 145v-28h-12v25q0 9 -8 9q-5 0 -7.5 -2.5t-2.5 -7.5v-24h-12v44h12v-5q4 7 12 7t13 -5t5 -13zM199 132v0q-3 -4 -8 -5l-3 1q-6 1 -8 6q-1 2 -1 5.5t1 6.5q2 5 8 6h3
q5 -1 8 -5l6 10q-4 3 -8 4.5t-7.5 1.5t-8 -1.5t-7.5 -4.5q-8 -7 -8 -17.5t8 -17.5q3 -3 7.5 -4.5t8.5 -1.5t7.5 1t7.5 5z" />
    <glyph glyph-name="fi-brands-flaticon" unicode="&#xe6fb;" 
d="M163 191h-69l-21 37h111l32 56h-183q-9 0 -16.5 -4.5t-12 -12t-4.5 -16.5t5 -16l116 -203q7 -12 20.5 -15.5t25.5 3.5q8 5 11 12l4 7l-54 93zM296 268q-5 7 -12.5 11.5t-16.5 4.5h-8l-88 -152l32 -56l92 159q5 7 5 16t-4 17v0z" />
    <glyph glyph-name="fi-brands-flickr" unicode="&#xe6fe;" 
d="M268 300h-236q-13 0 -22.5 -9.5t-9.5 -22.5v-236q0 -13 9.5 -22.5t22.5 -9.5h236q13 0 22.5 9.5t9.5 22.5v236q0 13 -9.5 22.5t-22.5 9.5zM97 108q-18 0 -30.5 12.5t-12.5 30t12.5 30t30 12.5t30 -12.5t12.5 -30t-12.5 -30t-29.5 -12.5zM203 108q-17 0 -29.5 12.5
t-12.5 30t12.5 30t30 12.5t30 -12.5t12.5 -30t-12.5 -30t-30.5 -12.5z" />
    <glyph glyph-name="fi-brands-flipboard" unicode="&#xe700;" 
d="M0 300v-300h300v300h-300zM240 180h-60v-60h-60v-60h-60v180h180v-60z" />
    <glyph glyph-name="fi-brands-fonts" unicode="&#xe735;" 
d="M247 296h-194q-22 0 -37.5 -15.5t-15.5 -37.5v-186q0 -22 15.5 -37.5t37.5 -15.5h194q22 0 37.5 15.5t15.5 37.5v186q0 22 -15.5 37.5t-37.5 15.5zM206 214q-3 0 -5 5q-2 8 -5 12t-6 4t-9 -13.5t-13 -38.5h22q1 -2 0 -5t-3 -4h-22l-20 -68q-7 -24 -13 -32
q-5 -8 -13.5 -12.5t-17 -4.5t-14.5 3.5t-6 10.5q0 5 4 9t8 4t5 -3q4 -7 7 -10.5t4.5 -3.5t3 3t4.5 12l25 92h-18q-1 3 0 6t3 3h17q7 21 13.5 33t17 19.5t23.5 7.5q11 0 16 -4t4.5 -11t-4.5 -10.5t-8 -3.5z" />
    <glyph glyph-name="fi-brands-foursquare" unicode="&#xe746;" 
d="M75 246h57v-10h-48v-25h42v-10h-42v-37h-9v82zM73 84l10 2q0 -9 7 -14t15.5 -4.5t14 4t5.5 9.5t-4.5 10t-18.5 8t-20 9.5t-6 15t7.5 15t20.5 5.5q10 1 18.5 -5t10.5 -17l-9 -2q-1 7 -7 11.5t-14 4t-13 -3.5t-5 -8t5 -9t17 -8q15 -4 21.5 -10t6.5 -16t-8.5 -16.5t-21 -7
t-21.5 7t-11 19.5zM146 101q-1 11 4.5 21t15 16t21 6t21 -6t14.5 -16t5 -21q0 -17 -11 -30l9 -10l-6 -7l-10 11q-10 -6 -21.5 -6.5t-21 5.5t-15 16t-5.5 21zM201 72q-5 5 -9 8l6 7l11 -9q8 10 8 23q1 9 -3 17t-11.5 12.5t-16 4.5t-16 -4.5t-11.5 -12.5t-2 -17q-2 -13 7 -23
t23 -10q8 -1 14 4z" />
    <glyph glyph-name="fi-brands-freepik-1" unicode="&#xe74e;" 
d="M37 183h-1q-5 2 -9.5 1.5t-4.5 -6.5v-6h15v-12h-15v-36h-13v36h-9v12h9v6q0 8 4.5 13.5t12.5 5.5q6 0 11 -3v-11zM68 160q-2 1 -3 1q-5 0 -8 -3t-3 -8v-26h-12v48h12v-6q5 7 14 7q4 0 7 -2zM119 148v-5h-34q2 -10 12 -10q7 0 12 5l8 -8q-8 -8 -20 -8t-19 7t-7 18.5
t7 18.5t17.5 7t17 -7t6.5 -18v0zM85 152h21q-2 10 -10.5 10t-10.5 -10v0zM170 148v-5h-34q2 -10 12 -10q7 0 12 5l8 -8q-8 -8 -20 -8t-19 7t-7 18.5t7 18.5t17.5 7t17 -7t6.5 -18v0zM136 152h21q-2 10 -10.5 10t-10.5 -10v0zM226 148q0 -11 -7 -18.5t-16 -7.5t-14 7v-25h-13
v68h12v-6q6 7 15.5 7t16 -7.5t6.5 -17.5v0zM188 148q0 -6 3.5 -10t8.5 -4t9 4t4 9.5t-3.5 9.5t-9 4t-9 -4t-3.5 -9zM247 188q0 -4 -2.5 -6.5t-6 -2.5t-6 2.5t-2.5 6t2.5 6t6 2.5t6 -2.5t2.5 -5.5zM245 124h-13v48h13v-48zM266 155l18 17h16l-23 -23l23 -25h-16l-18 19v-19
h-13v71h13v-40z" />
    <glyph glyph-name="fi-brands-freepik" unicode="&#xe74d;" 
d="M54 214q-13 -14 -22 -29l-9 5q-1 4 -4.5 6.5t-8.5 2t-8 -4t-2 -9t6.5 -8.5t10.5 0l9 -5q-8 -16 -11 -35l15 -2q7 39 35 68zM161 259h-10l-1 13q6 4 5 12q-2 6 -6 9t-9.5 2t-9 -5t-3.5 -9q1 -8 8 -11l1 -13q-20 -3 -40 -12l7 -14q20 10 42.5 12.5t44.5 -2.5l3 15
q-16 3 -32 3zM290 209q5 1 8 5t2 8.5t-4.5 7.5t-8.5 2.5t-8 -4t-3 -7.5l-8 -7q-12 12 -27 22l-8 -12q33 -22 50 -58l14 6q-8 17 -19 31l8 7q2 -1 4 -1zM150 58q-11 -1 -22 -1q-28 0 -49 4q-13 2 -25 6q18 -33 51 -49.5t69.5 -12t64 28.5t36.5 60q-22 -14 -48 -22
q-38 -13 -77 -14v0zM279 127v-3v-9q-20 -18 -54 -29t-76 -13q-36 -3 -66 2q-27 4 -38 12q-6 26 0.5 52t23 47t41 32.5t51.5 11.5q29 0 54.5 -13.5t42.5 -37t20 -52.5h1zM155 137q0 15 -10.5 26t-25.5 11t-25.5 -11t-10.5 -26t10.5 -25.5t25.5 -10.5t25.5 10.5t10.5 25.5v0z
M238 146q0 10 -8 18t-19 8t-18.5 -8t-7.5 -18.5t7.5 -18.5t18.5 -8t19 7.5t8 19.5v0z" />
    <glyph glyph-name="fi-brands-fresco" unicode="&#xe751;" 
d="M247 296h-194q-22 0 -37.5 -15.5t-15.5 -37.5v-186q0 -22 15.5 -37.5t37.5 -15.5h194q22 0 37.5 15.5t15.5 37.5v186q0 22 -15.5 37.5t-37.5 15.5zM163 197q0 -1 -1 -1h-56v-30h50q2 0 2 -2v-22q0 -1 -1 -1l-51 -1v-49q0 -1 -1 -1h-25h-2v1v129q0 3 2 3h81v-3l3 -22
q0 -1 -1 -1zM236 165q0 -1 -2 -1q-13 1 -24 -4q-4 -2 -7 -5v-64q0 -1 -1 -1h-24q-2 -1 -2 1l-1 79l-1 18q0 1 0.5 1.5t1.5 0.5h22q1 0 2 -2t1 -3l1 -9q6 7 14 11.5t18 4.5q2 0 2 -2v-25z" />
    <glyph glyph-name="fi-brands-github" unicode="&#xe787;" 
d="M150 296q-41 0 -75.5 -20t-54.5 -54.5t-20 -75.5q0 -32 13 -61t36.5 -50t53.5 -31q5 -1 7.5 1.5t2.5 5.5v28q-15 -3 -26 -1q-9 2 -15 7q-5 3 -8 8l-2 4q-4 11 -11 17q-3 4 -6 5v0q-6 4 -5.5 6t3.5 3h3q10 -1 18 -8q3 -4 5 -8v0q9 -15 24 -16q10 -1 20 4q2 13 10 20
q-31 3 -47 17q-22 18 -22 57q0 23 16 40q-3 6 -3 14q-1 13 4 26h5q5 0 13 -3q11 -4 23 -12q18 5 38 5t38 -5q17 12 31 15q7 1 10 0v0q5 -13 4 -26q0 -8 -3 -14q16 -16 16 -40q0 -39 -22 -57q-16 -13 -47 -17q10 -9 10 -28v-41q0 -3 2.5 -5.5t8.5 -1.5q29 10 52.5 31t36.5 50
t13 61q0 41 -20 75.5t-54.5 54.5t-75.5 20zM57 81q-1 -1 -3 -0.5t-1.5 2t2.5 0.5t2 -2v0zM63 74q-1 -1 -3 1t-0.5 3t3 -1t0.5 -3v0zM69 66q-2 -2 -3.5 0.5t0 4t3 -1t0.5 -3.5v0zM77 57q-2 -2 -4 0.5t-0.5 4t3.5 -0.5t1 -4v0zM88 52q-1 -2 -4 -1t-2 3t4 1t2 -3v0zM100 51
q0 -2 -3 -2t-3 2.5t3 2.5t3 -3v0zM112 53q0 -2 -3 -2.5t-3.5 1.5t2.5 3t4 -2v0z" />
    <glyph glyph-name="fi-brands-gitlab" unicode="&#xe788;" 
d="M299 133l-16 50l-32 97q-1 4 -4 6.5t-7 2.5v0q-4 0 -7.5 -2.5t-4.5 -6.5l-30 -93h-96l-30 93q-1 4 -4.5 6.5t-7.5 2.5v0q-4 0 -7 -2.5t-4 -6.5l-48 -147q-2 -5 0 -10.5t6 -9.5l139 -100q2 -2 4.5 -1.5t3.5 1.5l139 100q4 4 6 9.5t0 10.5zM263 174l-95 -121l40 121h55z
M150 40l-3 11l-40 123h86zM92 174l40 -121l-95 121h55zM240 272l27 -85h-55zM60 272l28 -85h-55zM15 124q-2 2 -1 5l12 37l89 -114zM285 124l-100 -72l89 114l12 -37q1 -3 -1 -5z" />
    <glyph glyph-name="fi-brands-goodreads" unicode="&#xe79d;" 
d="M201 193q3 -20 -3 -38.5t-21 -28.5q-11 -7 -24.5 -7.5t-23.5 3.5q-17 8 -25 27q-7 17 -6 38q2 29 18 45q13 14 32 14q23 0 36 -14t17 -39v0zM300 263v-225q0 -16 -11 -27t-26 -11h-225q-16 0 -27 11t-11 27v225q0 15 11 26t27 11h225q15 0 26 -11t11 -26zM221 112v145
h-19v-27q-1 0 -2 1v0q-5 12 -17 21q-15 10 -33 10q-26 0 -43.5 -14t-24.5 -38q-4 -14 -4 -31q1 -38 21 -58t55 -19q14 1 26.5 8.5t19.5 21.5l1 2v0q1 -7 0.5 -23.5t-4.5 -28.5q-8 -22 -30 -27q-19 -4 -36 1q-23 7 -27 28q0 1 -1 1h-19q1 -11 6 -19q11 -20 38 -26
q23 -6 47.5 0t35.5 26q10 18 10 46v0z" />
    <glyph glyph-name="fi-brands-google" unicode="&#xe79e;" 
d="M156 122v41h138q2 -11 2 -25q0 -26 -7 -49q-10 -28 -28 -47q-41 -42 -105 -42q-41 0 -76 20t-55.5 54.5t-20.5 75.5t20.5 75.5t55.5 54.5t76 20q60 0 103 -41l-29 -29q-31 29 -74 29q-30 0 -54.5 -14.5t-39 -39.5t-14.5 -55t14.5 -55t39 -39.5t54.5 -14.5q26 0 47 10
q16 7 29 20q18 18 22 51h-98z" />
    <glyph glyph-name="fi-brands-haskell" unicode="&#xe821;" 
d="M0 44l71 106l-71 106h53l71 -106l-71 -106h-53zM71 44l70 106l-70 106h53l141 -212h-53l-44 66l-44 -66h-53zM241 106l-23 35h82v-35h-59zM206 159l-24 35h118v-35h-94z" />
    <glyph glyph-name="fi-brands-hbo" unicode="&#xe82c;" 
d="M239 212q-23 0 -39 -14q-12 -10 -17 -21q0 12 -9.5 22.5t-22.5 10.5h-56v-121h52q15 0 25.5 10.5t10.5 23.5q6 -12 17 -21q17 -14 39 -14v0q16 0 30 8.5t22.5 23t8.5 31t-8.5 30.5t-22.5 22.5t-30 8.5zM143 117h-17v20h17q3 0 5.5 -3t2.5 -7t-2.5 -7t-5.5 -3zM143 162
h-17v21h17q3 0 5.5 -3t2.5 -7.5t-2.5 -7.5t-5.5 -3zM165 150v0q3 1 7 3.5t5 4.5v-8.5v-8.5q-2 3 -5.5 6t-6.5 3zM239 119q-13 0 -22 9t-9 22t9 22t21.5 9t21.5 -9t9 -22t-9 -22t-21 -9zM214 150q0 -10 7.5 -17t17.5 -7t17 7t7 17t-7 17t-17 7t-17.5 -7t-7.5 -17zM88 89h-33
v47h-21v-47h-34v121h34v-45h21v45h33v-121zM293 201q1 0 1 1v1h-2v-2h1v0zM291 204h2q1 0 2 -1v-1v-1h-1l1 -2h-1l-1 2h-1v-2h-1v5zM293 197q3 0 4 2v1q0 1 -0.5 3t-3.5 2h-2q-2 -1 -2 -3.5t1 -3.5t3 -1zM293 197q-2 -1 -3 1l-1 1q-1 2 -0.5 4t2.5 2.5t3.5 0t2.5 -2.5t0 -4
t-3 -2l-1 -1v1z" />
    <glyph glyph-name="fi-brands-hotjar" unicode="&#xe87d;" 
d="M263 202q-19 36 -65 61q-32 18 -74 29q-21 6 -35 8v0l6 -7q6 -10 10 -20q6 -14 6 -28q1 -17 -8 -32q-9 -18 -31 -33q-37 -25 -49.5 -57t2.5 -67q12 -25 36 -39q20 -12 50 -17q-7 14 -8.5 32.5t3.5 37.5l3 8q7 -12 19 -17.5t24 -2.5q17 4 25.5 21.5t3.5 38.5q-2 9 -7 17
l3 -1q14 -3 22.5 -17t11 -34t-3 -40.5t-16.5 -37.5q34 11 58 37q23 23 30 50t2.5 56.5t-18.5 53.5z" />
    <glyph glyph-name="fi-brands-html5" unicode="&#xe8a4;" 
d="M64 300h13v-13h12v13h14v-40h-14v13h-12v-13h-13v40zM121 287h-12v13h37v-13h-12v-27h-13v27zM152 300h14l9 -14l9 14h14v-40h-14v20l-9 -15l-10 15v-20h-13v40zM204 300h14v-27h19v-13h-33v40zM44 241l19 -217l87 -24l87 24l19 217h-212zM83 197h67v-27h-38l3 -27h35
v-27h-60zM150 116h33l-3 -34l-30 -8v42zM220 38l-70 -20v28l-55 15l-3 42h26l2 -21l30 -8v-28l54 15l8 82h-62v27h64l3 27h-67v26h87zM150 143h62l-8 -82l-54 -15v28l30 8l3 34h-33v27zM217 197l-3 -27h-64v27h67zM150 197v-27v27zM150 143v-27v27zM150 74v0v-28v28z
M150 197v-27h64l3 27h-67zM150 143v-27h33l-3 -34l-30 -8v-28l54 15l8 82h-62z" />
    <glyph glyph-name="fi-brands-huawei" unicode="&#xe8a5;" 
d="M36 30h-22v20h-10v-49h10v20h22v-20h10v49h-10v-20zM93 22q0 -12 -11.5 -12t-11.5 12v28h-10v-28q0 -11 5.5 -16.5t16 -5.5t16 6t5.5 16v28h-10v-28zM208 16l-11 34h-8l-11 -34l-11 34h-11l17 -49h9l11 32l11 -32h9l17 49h-11zM248 22h18v9h-18v10h26v9h-36v-49h37v9h-27
v12zM287 50h10v-49h-10v49zM145 11l4 -10h11l-22 49h-9l-21 -49h10l4 10h23zM134 38l7 -18h-15zM276 212q0 12 -6 24q-4 9 -12 18l-6 7l-14 -18q-16 -22 -31 -46q-21 -35 -37 -68q0 -1 0.5 -1.5t1.5 -0.5q20 10 41 22q33 20 48 34l3 3q5 5 7 11q4 7 5 15zM215 269l-2 6
q-3 7 -9 12q-8 8 -18 10l-15 3l-2 -5q-3 -6 -6 -15q-4 -13 -6 -30q-3 -21 -3 -47q0 -31 4 -67q0 -1 0.5 -1h1.5q15 22 28 44q22 39 27 62l2 10q1 11 -2 18zM179 109q-1 -1 0 -1q34 -25 48 -28l3 -1q6 0 12 1.5t13.5 8t14.5 17.5l-90 4q-1 0 -1 -1zM294 186q-22 -12 -43 -24
q-48 -27 -73 -44q-1 0 -0.5 -1l0.5 -1l70 1h4q6 1 11 3l5 2q7 4 12 9q8 7 12 17q0 -1 1.5 3t2.5 9t0.5 12t-2.5 14zM122 118q-25 17 -73 44l-43 24q-3 -9 -3 -19q1 -7 3 -14l2 -5q4 -10 12 -17q5 -5 12 -9l5 -2q8 -3 15 -3l70 -1l0.5 1t-0.5 1zM120 110l-90 -4
q7 -11 14.5 -17.5t13.5 -8t11 -1.5l4 1q14 3 48 28q1 0 0.5 1t-1.5 1zM114 297q-10 -2 -18 -10q-6 -5 -9 -12l-3 -6q-2 -7 -1 -18q0 -6 2 -10v0q5 -23 27 -62q13 -22 28 -44h1.5t0.5 1q6 57 2 100q-2 30 -9 50q-4 10 -7 14v0q-7 -1 -14 -3v0zM48 261q-3 -3 -6 -7
q-8 -9 -12 -18q-6 -12 -5.5 -23.5t7.5 -21.5q4 -5 7 -8v0q15 -14 48 -34q21 -12 41 -22q1 0 1.5 0.5t0.5 1.5q-22 47 -54 94q-16 24 -28 38v0z" />
    <glyph glyph-name="fi-brands-hubspot" unicode="&#xe8a6;" 
d="M227 201v35q7 4 11.5 10.5t4.5 14.5v1q0 11 -8 19t-20 8v0q-12 0 -20 -8t-8 -19v-1q0 -8 4.5 -14.5t11.5 -10.5v-35q-21 -3 -37 -16l-98 76q4 12 -2.5 23.5t-19 14.5t-24 -3.5t-14.5 -19t3.5 -23.5t18.5 -14.5t24 3.5l96 -75q-13 -20 -13 -44t14 -44l-29 -29q-4 1 -8 1
q-10 0 -17.5 -7.5t-7.5 -18t7.5 -18t18 -7.5t18 7.5t7.5 17.5v0q0 4 -1 8l29 29q17 -13 37.5 -15.5t39.5 5t32 24.5t15.5 37.5t-5.5 40t-24 32t-36 15.5zM215 84q-17 0 -28.5 11.5t-11.5 28t12 28.5t28.5 12t28 -12t11.5 -28.5t-11.5 -28t-28.5 -11.5z" />
    <glyph glyph-name="fi-brands-ibm" unicode="&#xe8ae;" 
d="M0 98h58v-8h-58v8zM0 114h58v-8h-58v8zM17 130h25v-8h-25v8zM17 146h25v-8h-25v8zM17 162h25v-8h-25v8zM17 178h25v-8h-25v8zM0 194h58v-8h-58v8zM0 210h58v-8h-58v8zM67 106h89q2 4 3 8h-92v-8zM149 146h-66v-8h73q-3 5 -7 8zM83 162v-8h66q4 3 7 8h-73zM156 194h-89v-8
h92q-1 4 -3 8zM128 210h-61v-8h82q-9 8 -21 8zM83 178h25v-8h-25v8zM132 170h27q1 4 1 8h-28v-8zM83 130h25v-8h-25v8zM132 130v-8h28q0 4 -1 8h-27zM67 90h61q12 0 21 8h-82v-8zM233 90l3 8h-6zM228 106h11l3 8h-17zM222 122h22l3 8h-28zM217 138h33l3 8h-39zM183 170h45
l-3 8h-42v-8zM244 186h56v8h-53zM252 210l-3 -8h51v8h-48zM167 98h41v-8h-41v8zM167 114h41v-8h-41v8zM183 130h25v-8h-25v8zM183 146h25v-8h-25v8zM283 178h-42l-3 -8h45v8zM258 154h25v8h-47l-3 -7l-2 7h-48v-8h25v7l3 -7h45l2 7v-7zM258 146h25v-8h-25v8zM258 130h25v-8
h-25v8zM258 114h42v-8h-42v8zM258 98h42v-8h-42v8zM223 186l-3 8h-53v-8h56zM217 202l-3 8h-47v-8h50z" />
    <glyph glyph-name="fi-brands-iconfinder" unicode="&#xe8b3;" 
d="M150 175q-9 0 -18 -4q6 -2 9.5 -7t3.5 -12.5t-6 -13t-13 -5.5t-12 3.5t-7 9.5q-3 -8 -3 -18q0 -19 13.5 -33t32.5 -14t33 14t14 33t-14 33t-33 14zM213 229q-23 14 -49.5 17t-52.5 -5v0q26 19 59 19q19 0 34 -6l2 -1q2 0 3.5 1.5t1.5 3.5t-2 4q-13 11 -28 21
q-11 7 -22 12l-9 4q-34 -14 -61 -39t-42 -58.5t-16 -70.5q-1 -33 16 -63q10 -17 25 -30q-30 13 -46 41q-9 16 -12 33l-1 2q-1 2 -2.5 2.5t-3.5 -0.5t-2 -4q-4 -17 -5 -35q0 -13 1 -25l1 -10q29 -23 65 -33.5t73 -6.5t70 22q22 14 37 35t20 46v0q3 -32 -13 -60
q-9 -17 -22 -27l-2 -2q-1 -1 -0.5 -3t2.5 -3t4 0q17 5 33 13q11 6 21 14l8 5q5 36 -3.5 72t-29.5 66t-52 49zM150 50q-27 0 -49.5 11.5t-35.5 31t-13 42.5q0 8 1 15q16 16 41.5 25.5t55.5 9.5t55.5 -9.5t41.5 -25.5q2 -7 2 -15q0 -23 -13.5 -42.5t-36 -31t-49.5 -11.5z" />
    <glyph glyph-name="fi-brands-illustrator-draw" unicode="&#xe8b9;" 
d="M249 296h-203q-26 0 -37 -16q-9 -13 -9 -44v-182q0 -28 10.5 -39t38.5 -11h201q28 0 39 11t11 39v189q0 28 -12 40.5t-39 12.5zM142 224h29q0 -11 11 -26q9 -14 17 -18l-37 -70h-1v47q3 1 5 4t2 7t-3.5 7t-7.5 3t-6.5 -2t-4 -5.5t0.5 -7.5t6 -6v-47h-1l-37 70q7 6 16 19
q11 16 11 25zM246 221l-87 -157q-1 -2 -2 -2l-2 1l-98 142q-3 4 -3 8v0q0 5 3 8.5t8.5 3.5t10.5 -8l81 -146l84 152q2 3 4.5 1.5t0.5 -3.5z" />
    <glyph glyph-name="fi-brands-illustrator" unicode="&#xe8b8;" 
d="M122 198v0l-16 -52h32zM122 198v0l-16 -52h32zM247 296h-194q-22 0 -37.5 -15.5t-15.5 -37.5v-186q0 -22 15.5 -37.5t37.5 -15.5h194q22 0 37.5 15.5t15.5 37.5v186q0 22 -15.5 37.5t-37.5 15.5zM184 90h-26q-2 -1 -2 1l-11 30h-46l-10 -30q0 -2 -2 -1h-23q-2 0 -2 2
l42 120v8q0 1 1 1h33q1 0 1 -1l46 -128q1 -2 -1 -2zM226 92q0 -2 -1 -2h-25q-2 0 -2 2v96q0 2 2 2h25q1 -1 1 -2v-96zM224 204q-5 -4 -11.5 -4t-11 4.5t-4.5 11.5t4.5 11t11.5 4t11 -4.5t4 -11t-4 -11.5zM122 198l-16 -52h32z" />
    <glyph glyph-name="fi-brands-imdb" unicode="&#xe8bd;" 
d="M283 223h-266q-7 0 -12 -5t-5 -12v-112q0 -7 5 -12t12 -5h266q7 0 12 5t5 12v112q0 7 -5 12t-12 5zM283 220q6 0 10 -4t4 -10v-112q0 -6 -4 -10t-10 -4h-266q-6 0 -10 4t-4 10v112q0 6 4 10t10 4h266zM43 192h22v-85h-22v85zM113 192l-5 -40l-6 40h-29v-85h19l1 56l8 -56
h14l7 57v-57h20v85h-29zM177 177q1 -1 1 -3l1 -7v-33q0 -9 -1.5 -11t-5.5 -2v57q3 0 5 -1zM176 107q8 0 12 0.5t7 3t4 6.5t1 15v30q0 12 -1 16.5t-4 7.5t-8.5 4.5t-20.5 1.5h-17v-85h27zM236 127q0 -6 -0.5 -7.5t-3 -1.5t-3 1.5t-0.5 7.5v22q0 6 0.5 7.5t3 1.5t3 -1.5
t0.5 -7.5v-22zM207 192v-85h20l2 5q2 -3 5.5 -4.5t8.5 -1.5t9 2.5t5 6.5t1 11l-1 34q-1 7 -7 9q-3 2 -7.5 2t-7.5 -1.5t-6 -5.5v28h-22z" />
    <glyph glyph-name="fi-brands-incopy" unicode="&#xe8c6;" 
d="M247 295h-194q-22 0 -37.5 -15.5t-15.5 -37.5v-184q0 -22 15.5 -37.5t37.5 -15.5h194q22 0 37.5 15.5t15.5 37.5v184q0 22 -15.5 37.5t-37.5 15.5zM122 218v-124q0 -2 -1 -2l-23 -1q-1 0 -1 2v125q0 1 1 1l23 1q1 0 1 -2v0zM214 94q0 -1 -1 -2q-4 -2 -9 -2l-11 -1
q-12 0 -21.5 3.5t-17 11t-10.5 16.5q-5 11 -4 23.5t7.5 24t20 18t28.5 6.5q6 0 12 -1l5 -2q1 0 1 -2v-21q0 -1 -2 -0.5t-5 1.5h-10q-8 1 -14.5 -2t-10.5 -9.5t-4 -15t4.5 -15t11.5 -9t14 -2.5h9q3 0 5 1t2 -1v-20z" />
    <glyph glyph-name="fi-brands-indesign" unicode="&#xe8c8;" 
d="M247 296h-194q-22 0 -37.5 -15.5t-15.5 -37.5v-186q0 -22 15.5 -37.5t37.5 -15.5h194q22 0 37.5 15.5t15.5 37.5v186q0 22 -15.5 37.5t-37.5 15.5zM109 92q0 -2 -2 -2h-24q-2 0 -2 2v128q0 1 2 1h24q2 1 2 -1v-128zM221 95q-10 -4 -20 -5.5t-20 -1.5q-14 -1 -26.5 5
t-19.5 17t-7 29q0 14 7.5 26.5t20 19.5t31.5 7l6 -1v40q0 1 2 1h25q1 0 1 -1v-126l1 -8q0 -1 -1 -2zM186 168q-8 0 -14.5 -3t-10.5 -9t-4 -16q0 -7 2 -12.5t5.5 -9t8.5 -5t11 -1.5h5q2 0 4 1v55h-7z" />
    <glyph glyph-name="fi-brands-instagram" unicode="&#xe8de;" 
d="M150 273q42 0 61 -1q30 -1 45 -16t16 -45q1 -19 1 -61t-1 -61q-1 -30 -16 -45t-45 -16q-19 -1 -61 -1t-61 1q-30 1 -45 16t-16 45q-1 19 -1 61t1 61q1 30 16 45t45 16q19 1 61 1zM150 300q-42 0 -62 -1q-40 -2 -62.5 -24.5t-24.5 -62.5q-1 -20 -1 -62t1 -62
q2 -40 24.5 -62.5t62.5 -24.5q20 -1 62 -1t62 1q40 2 62.5 24.5t24.5 62.5q1 20 1 62t-1 62q-2 40 -24.5 62.5t-62.5 24.5q-20 1 -62 1zM150 227q-21 0 -38.5 -10.5t-28 -28t-10.5 -38.5t10.5 -38.5t28 -28t38.5 -10.5t38.5 10.5t28 28t10.5 38.5t-10.5 38.5t-28 28
t-38.5 10.5zM150 100q-21 0 -35.5 14.5t-14.5 35.5t14.5 35.5t35.5 14.5t35.5 -14.5t14.5 -35.5t-14.5 -35.5t-35.5 -14.5zM212 230q0 -7 5.5 -12.5t13 -5.5t12.5 5.5t5 13t-5 12.5t-12.5 5t-13 -5t-5.5 -13z" />
    <glyph glyph-name="fi-brands-intel" unicode="&#xe8e4;" 
d="M0 207h22v-22h-22v22zM21 93v79h-20v-79h20zM158 93v19h-8q-3 1 -4.5 2.5t-2.5 4.5v8v27h15v18h-15v30h-21v-75q0 -10 2 -16.5t5.5 -10.5t10 -5.5t15.5 -1.5h3zM276 93v115h-21v-115h21zM102 164q-8 9 -24 9q-7 0 -13 -3t-10 -8l-1 -2v12h-21v-79h21v42v-3v2q0 11 5.5 16
t13.5 5t12.5 -5t4.5 -15v0v-42h21v45q0 17 -9 26zM245 133q0 8 -3 15.5t-8.5 13t-13 8.5t-16 3t-16 -3t-13 -8.5t-8.5 -13t-3 -16t3 -16t8 -13t13 -8.5t17 -3q21 0 35 15l-15 11q-3 -3 -8.5 -5.5t-11.5 -2.5q-9 0 -14.5 4t-7.5 11v0h62v8zM183 140q0 5 5.5 10.5t15.5 5.5
t15.5 -5.5t5.5 -10.5h-42zM299 104q0 1 -1 2l-3 2h-3h-3l-2 -2l-2 -2v-3v-3l2 -3l2 -1q2 -1 3 -1l3 1l3 1l1 3l1 3zM298 98q0 -1 -1 -2l-2 -1l-3 -1l-2 1l-2 1l-1 2l-1 3l1 2l1 2l2 2h2l3 -1l2 -1l1 -2l1 -2zM294 100q1 0 1.5 0.5t0.5 2t-1 2t-2 0.5h-4v-9h2v4h1l2 -4h2z
M293 101h-1h-1v3h2l1 -1v-1z" />
    <glyph glyph-name="fi-brands-invision" unicode="&#xe8f0;" 
d="M300 273q0 11 -8 19t-19 8h-246q-11 0 -19 -8t-8 -19v-246q0 -11 8 -19t19 -8h246q11 0 19 8t8 19v246zM100 241q8 0 13 -5t5 -12.5t-5 -13t-13 -5.5t-13 5.5t-5 13t5 12.5t13 5zM223 69q-14 0 -21 7t-7 19q0 7 2 13l9 32q1 4 1 10q0 7 -4 11.5t-12 4.5q-19 0 -25 -26
l-18 -70h-30l6 22q-15 -23 -37 -23q-13 0 -20 7t-7 19q0 7 2 14l14 56h-22l7 24h51l-20 -81q-2 -7 -2 -11t1.5 -6t4.5 -2.5t8.5 1t11.5 5.5q8 6 12 17l14 53h-22l7 24h46l-6 -27q6 12 17.5 20.5t23.5 8.5t21 -9.5t9 -25.5q0 -10 -3 -20l-9 -31q-1 -5 -1 -8q0 -8 7 -8t14 19
l12 -5q-10 -34 -35 -34z" />
    <glyph glyph-name="fi-brands-itunes" unicode="&#xe901;" 
d="M179 185v0v0zM300 217q0 15 -1 24q-2 14 -7 23q-7 14 -19 22.5t-27 11.5q-11 2 -34 2h-124q-23 0 -34 -2q-15 -3 -27 -11.5t-19 -22.5t-8 -38v-138q0 -22 2 -34q3 -14 11.5 -26.5t22.5 -19.5q10 -5 25 -7q9 -1 27 -1h123q18 0 27 1q16 2 26 7q14 7 22.5 19.5t11.5 26.5
q2 11 2 34v129zM261 180q-1 -2 -4 -5l-60 -44l23 -72q1 -7 -2 -8t-7 2l-61 44l-61 -44q-3 -2 -5.5 -2t-3.5 2t0 6l23 72l-60 44q-3 2 -4 4.5t1 4t6 1.5h75l24 72q1 4 3 5t4 0t3 -5l24 -72h75q4 0 5.5 -1.5t1.5 -3.5z" />
    <glyph glyph-name="fi-brands-janseen" unicode="&#xe905;" 
d="M150 155q0 -49 -20 -91q-18 -36 -50 -64q33 7 59.5 31t42 59.5t15.5 74.5l-1 19l51 17q11 4 11 12v6q-28 1 -127 4v0q7 -12 13 -29q6 -20 6 -39zM127 241q29 -5 55 -4q13 1 20 2v0l-2 7q-4 7 -8 11q-7 7 -16 7q-19 0 -37 2l-15 1q-22 3 -40 9q-14 5 -25 11q-8 5 -13 9
l-4 4q2 -12 14.5 -25t31 -22t39.5 -12z" />
    <glyph glyph-name="fi-brands-java" unicode="&#xe909;" 
d="M70 122q0 5 17 9q13 3 29 5l1 -1v0q-28 -5 -28 -9.5t20 -7.5q17 -3 35 -3q22 0 42 3q13 2 21 4l9 -5q-7 -3 -23 -6q-23 -5 -49 -5q-22 0 -39 2.5t-26 6t-9 7.5v0zM139 5q-31 0 -59 4l-1 -1q30 -8 72 -8q27 0 50 4.5t36.5 11t13.5 15.5v0q-7 -8 -26 -14q-32 -12 -86 -12v0
zM143 16q37 0 65 6q31 7 31 18q0 3 -4 5v0q-4 -9 -28.5 -14.5t-63.5 -6.5q-26 0 -53 5.5t-27 11.5q0 5 5 8t11 5l6 2l-2 1q-14 -2 -26 -7q-16 -6 -16 -13q1 -10 37 -16q31 -6 65 -5v0zM245 118q-1 -12 -11 -22q-7 -7 -22 -16l1 -1q18 5 30 14q17 12 15 27q-1 8 -7.5 13
t-16.5 5q-5 0 -10 -1l-1 -2q9 2 15.5 -3.5t6.5 -13.5v0zM112 66q-16 -3 -16 -9t14.5 -10t34 -4t34.5 4q8 3 11 5l-13 8q-15 -4 -33 -4q-14 0 -23 2t-9 4t1 4h-1zM192 92q-20 -6 -48 -6q-18 0 -30.5 2.5t-12.5 5.5t2 4l2 2h-1q-22 -4 -22 -10t19.5 -10t42.5 -4q18 0 34.5 2.5
t24.5 6.5zM186 279q0 -17 -12 -33q-7 -9 -24 -24q-14 -13 -19 -19q-9 -11 -9 -21q0 -14 8 -27q4 -7 14 -18l2 -2h-1v0q-16 10 -24 18q-14 16 -14 33q0 13 10 25q7 8 25 23t25 24q12 15 12 30q0 6 -1 12h1q7 -9 7 -21v0zM206 238v0q-20 -6 -34 -16q-23 -16 -23 -36
q0 -6 3 -13q2 -3 6.5 -10t5.5 -10q3 -6 3 -12.5t-6 -13.5l1 -1q20 13 20 28q0 5 -7 17q-4 7 -6 10q-2 6 -2 11q0 15 16 29q10 9 23 17v0z" />
    <glyph glyph-name="fi-brands-jcb" unicode="&#xe90b;" 
d="M36 262q-14 0 -25 -11t-11 -25v-94q3 -2 12.5 -5t14.5 -3q23 -2 25 16v46h33v-45q-1 -18 -17 -24q-14 -6 -41 -5q-13 1 -27 4v-78h57q12 0 23.5 10.5t11.5 25.5v188h-56zM0 132v-16v0v16zM140 262q-14 0 -25 -11t-11 -25v-50q18 15 53 12q18 -2 29 -5v-15q-15 7 -28 8
q-16 1 -24.5 -6t-8.5 -19.5t8 -20t25 -6.5q6 0 14.5 3t13.5 5v-15q-5 -2 -14 -3q-11 -2 -21 -2q-31 0 -47 12v-86h57q13 0 24 10.5t11 25.5v188h-56zM248 145h-13h-9v-19h22q4 0 7 2.5t3 7t-3 7t-7 2.5zM255 165q0 5 -2.5 7.5t-6.5 2.5h-20v-18h21q3 0 5.5 2t2.5 6zM244 262
q-14 0 -25 -11t-11 -25v-40h54q9 0 16 -4.5t7 -13.5q0 -6 -4 -10.5t-13 -6.5v0q7 0 14 -4.5t7 -14t-8 -14.5q-6 -4 -14 -4h-59v-76h56q13 0 24.5 10.5t11.5 25.5v188h-56z" />
    <glyph glyph-name="fi-brands-jira" unicode="&#xe90c;" 
d="M288 300h-145q0 -18 9 -33t24 -23.5t32 -8.5h27v-26q0 -18 8.5 -32.5t23.5 -23.5t33 -9v144q0 5 -3.5 8.5t-8.5 3.5zM216 228h-144q0 -18 8.5 -33t23.5 -23.5t33 -8.5h26v-26q0 -18 9 -32.5t24 -23.5t32 -9v144q0 5 -3.5 8.5t-8.5 3.5zM144 156h-144q0 -18 9 -33
t23.5 -23.5t32.5 -8.5h27v-26q0 -18 8.5 -32.5t23.5 -23.5t33 -9v144q0 5 -3.5 8.5t-9.5 3.5z" />
    <glyph glyph-name="fi-brands-johnson-and-johnson" unicode="&#xe90d;" 
d="M300 168v0v0q-1 3 -4 3t-5 -1l-7 -6l-1 9q-5 42 -5 62q0 22 6 50l1 11q0 4 -4 4q-14 0 -32.5 -13t-30.5 -33q-15 -24 -15 -51q0 -32 14 -55q-3 1 -8 1q-8 0 -22 -3l-3 -1v6q0 11 -2 22t-6 15q-1 1 -3.5 1t-8.5 -3.5t-6 -4.5t1 -3l1 -1q7 -10 9 -22q-10 10 -24 13l-8 2
q-11 1 -22 -1q-17 -2 -34 -8l-1 8q-5 46 -5 66q0 22 6 50l1 11q0 4 -4 4q-14 0 -32.5 -13t-30.5 -33q-15 -24 -15 -51.5t11 -48.5q8 -16 30 -37q-13 -21 -20 -41q-8 -23 -8 -42q0 -34 18 -34q15 0 27 17t19 42.5t7 49.5q0 17 -2 37q12 8 24 11l3 1l-1 -4q0 -12 13 -18t34 -6
q6 0 15 2l1 -12q0 -9 4 -9t6 6.5t3 18.5q17 4 27 4q5 0 13 -1q7 -10 20 -22q-13 -21 -20 -41q-8 -23 -8 -42q0 -34 18 -34q15 0 27 17t19 42.5t7 49.5q0 20 -2 41v1l12 11q3 2 3 5v1zM39 19q-5 0 -8.5 5t-3.5 13q-1 44 34 88q4 -30 4 -44q0 -23 -7 -42.5t-19 -19.5zM62 263
q-11 -30 -11 -64q0 -13 5 -47l2 -11l-10 -13q-12 15 -18 31q-7 19 -7 43.5t9 45.5q7 19 18.5 30.5t19.5 11.5q1 0 1 -2zM152 141q-9 0 -15 3t-6 9t7.5 6t13.5 -4.5t13 -12.5q-5 -1 -13 -1zM226 203q0 24 9 45q7 19 18.5 30.5t19.5 11.5q1 0 1 -1.5t-3 -7.5l-6 -18
q-11 -30 -11 -64q0 -13 5 -46l2 -12l-10 -13q-12 15 -18 31q-7 19 -7 44zM242 19q-5 0 -8.5 5t-3.5 13q-1 44 34 88q4 -30 4 -44q0 -23 -7 -42.5t-19 -19.5z" />
    <glyph glyph-name="fi-brands-joomla" unicode="&#xe910;" 
d="M115 88l30 29l-67 67q-7 7 -7 17.5t7 17.5t17.5 7t17.5 -7l2 -2l30 29l-3 2q-12 13 -28.5 17.5t-33.5 0.5q-2 15 -13.5 24.5t-27 9.5t-27.5 -12t-12 -28q0 -15 9 -25.5t23 -13.5q-6 -18 -1.5 -35.5t17.5 -31.5zM154 248q13 14 31 18t35 -1q2 15 13 25t27 10t28 -12
t12 -28t-10 -27t-25 -13q5 -17 0.5 -34.5t-17.5 -31.5l-2 -2l-30 30l2 2q7 7 7.5 17.5t-7 17.5t-17.5 7t-17 -7l-67 -67l-30 30zM218 113q8 -7 8 -17t-7.5 -17.5t-17.5 -7.5t-17 7l-3 3l-29 -30l2 -2q13 -13 31 -17.5t36 0.5v0q2 -14 13 -23t27 -9t27.5 12t11.5 27.5t-10 27
t-24 13.5q4 17 -1 33.5t-17 29.5l-67 67l-29 -30zM179 145l30 -29l-67 -67q-12 -13 -29 -17.5t-34 -0.5q-3 -13 -14 -22t-25 -9q-16 0 -28 12t-12 28q0 14 8.5 25t22.5 14q-4 17 0.5 34t16.5 30l3 2l29 -29l-2 -3q-7 -7 -7 -17t7 -17.5t17.5 -7.5t17.5 7z" />
    <glyph glyph-name="fi-brands-js" unicode="&#xe917;" 
d="M202 66q3 -8 10.5 -13t16.5 -4.5t14 4t5 10t-5 10.5q-4 3 -15 8l-7 3q-17 7 -25 16q-9 11 -9 27t12.5 27t28.5 10q13 1 24 -5.5t16 -17.5l-22 -14q-2 6 -7 9t-10.5 3.5t-9.5 -3t-4 -9.5t3.5 -9.5t13.5 -7.5l7 -3q20 -8 28 -17q10 -11 10 -28.5t-13 -28t-34 -10.5
q-16 -1 -30 7t-21 22zM102 63q4 -7 8 -10.5t11 -3.5t10.5 3.5t3.5 13.5v96h28v-96q1 -9 -1.5 -17t-9 -14.5t-14.5 -9t-17 -1.5q-13 -1 -24.5 6t-17.5 19z" />
    <glyph glyph-name="fi-brands-kickstarter" unicode="&#xe92d;" 
d="M234 150l28 27q14 14 18.5 32.5t0 37t-18.5 32.5t-33 18.5t-37.5 0t-32.5 -18.5l-10 -10q-10 14 -25.5 22.5t-34.5 8.5t-35.5 -9.5t-26.5 -26t-10 -36.5v-156q0 -20 10 -36.5t26.5 -26t35.5 -9.5t34.5 8.5t25.5 22.5l10 -10q14 -14 32.5 -18.5t37.5 0t33 18.5t18.5 32.5
t0 37t-18.5 32.5z" />
    <glyph glyph-name="fi-brands-line" unicode="&#xe9a1;" 
d="M232 300h-164q-19 0 -34.5 -9t-24.5 -24.5t-9 -34.5v-164q0 -19 9 -34.5t24.5 -24.5t34.5 -9h164q19 0 34.5 9t24.5 24.5t9 34.5v164q0 19 -9 34.5t-24.5 24.5t-34.5 9zM229 114v0q-14 -16 -44 -36q-24 -17 -35 -22q-7 -3 -8 -0.5t-1 5.5l2 9q1 6 -0.5 9t-8.5 5
q-24 3 -43 14.5t-30 28.5t-11 37q0 22 13.5 40.5t36.5 29.5t50 11t50 -11t36.5 -29.5t13.5 -40.5q0 -26 -21 -50zM198 175v-8h19q2 0 2 -1v-8q0 -1 -2 -1h-19v-8h19q2 0 2 -2v-7q0 -2 -2 -2h-28q-2 0 -2 2v44q0 2 2 2h28q2 0 2 -2v-7q0 -2 -2 -2h-19zM115 147v-7q0 -2 -2 -2
h-28q-2 0 -2 2v44q0 2 2 2h7q2 0 2 -2v-35h19q2 0 2 -2zM132 184v-44q0 -2 -2 -2h-7q-2 0 -2 2v44q0 2 2 2h7q2 0 2 -2zM180 184v-44q0 -2 -2 -2h-7q-1 0 -2 1l-20 27v-26q0 -2 -2 -2h-7q-2 0 -2 2v44q0 2 2 2h7q1 0 2 -1l20 -27v26q0 2 2 2h7q2 0 2 -2z" />
    <glyph glyph-name="fi-brands-linkedin" unicode="&#xe9a9;" 
d="M288 30h2l-5 8q5 0 5 5v0q0 6 -6 6h-8v-19h3v8h3zM282 40h-3v7h4q4 0 4 -3.5t-5 -3.5zM216 62h-37v58q0 15 -3 22q-4 11 -17 11t-19 -10q-4 -7 -4 -22v-59h-37v121h36v-17v0q6 10 15.5 15t20.5 5q26 0 37 -17q8 -13 8 -41v-66zM56 199q-9 0 -15 6.5t-6 15.5t6 15.5
t15 6.5t15.5 -6.5t6.5 -15.5t-6.5 -15.5t-15.5 -6.5v0zM75 62h-37v121h37v-121zM235 278h-216q-8 0 -13.5 -5.5t-5.5 -13.5v-217q0 -7 5.5 -12.5t13.5 -5.5h216q8 0 13.5 5.5t5.5 12.5v217q0 8 -5.5 13.5t-13.5 5.5zM283 57q-8 0 -13 -5t-5 -12.5t5.5 -12.5t12.5 -5t12 5.5
t5 12.5t-5 12t-12 5v0zM283 24q-6 0 -11 4.5t-5 10.5t4.5 10.5t10.5 5t10.5 -4t4.5 -10.5v-1q1 -6 -3.5 -10.5t-10.5 -4.5v0z" />
    <glyph glyph-name="fi-brands-lisp" unicode="&#xe9b0;" 
d="M256 256q-21 21 -48.5 32.5t-57.5 11.5t-57.5 -11.5t-48.5 -32.5t-32.5 -48.5t-11.5 -57.5t11.5 -57.5t32.5 -48.5t48.5 -32.5t57.5 -11.5v0q30 0 57.5 11.5t48.5 32.5t32.5 48.5t11.5 57.5t-11.5 57.5t-32.5 48.5zM151 296q29 0 55.5 -11t47 -31.5t31.5 -47.5t11 -56
t-11 -56t-32 -47q-10 -11 -23 -16.5t-28 -5.5v0q-14 0 -27.5 5.5t-23.5 16t-15.5 23.5t-5.5 27.5t5.5 28t16 24t16 24.5t5.5 29t-5.5 29t-16.5 25q-18 18 -43 22q-6 1 -12 1q-10 0 -20 -3q34 20 75 19zM139 214q-3 -7 -10 -20v0q-17 -31 -22 -46q-9 -24 -6 -43q3 -23 22 -45
h-21q-23 38 -37 70q-18 38 -32 84h22q4 -17 11 -36q5 -14 14 -36l2 -4l1 4q18 45 35 72h21zM158 84h25q17 27 35 73q9 -22 14 -35q8 -20 12 -38h25q-13 46 -31 85q-16 33 -40 72h-25q21 -22 24 -45q4 -19 -5 -43q-5 -15 -22 -46z" />
    <glyph glyph-name="fi-brands-mailchimp" unicode="&#xe9e8;" 
d="M221 158q4 1 6 0q2 5 1 12q-3 12 -8 11t-3 -13q2 -6 4 -10zM185 153q1 0 1 -1q4 -2 5 -1t0 3q-3 4 -8 6t-10.5 1.5t-10 -3.5t-4 -4.5t1.5 -1.5l4 1q6 2 10.5 2t10.5 -2zM179 149q-4 -1 -6.5 -3t-2.5 -3l1 -1l3 1q6 2 12 1h1q2 0 2.5 0.5t0 1.5t-3.5 2.5t-7 0.5zM209 137
q2 -1 4 -1t2.5 1.5t0 3.5t-2.5 3t-4 0.5t-3 -2t0 -3t3 -2.5zM226 151q-1 0 -2.5 -1.5t-1.5 -3.5t1 -3.5t3 -1.5t3 1.5t1 3.5t-1 3.5t-3 1.5zM82 98q0 1 -2 1l-2 -1q-3 0 -4 2.5t0 6.5l1 1q4 10 0.5 16.5t-10.5 7.5t-12 -4q-3 -4 -4.5 -8.5t-0.5 -6t2 -2t2 2.5v1q1 3 2.5 5
t5 3t6.5 -1t4 -4.5t-1 -5.5q-1 -6 -1 -10t2.5 -6t5 -2t4.5 1t2.5 2t-0.5 1zM280 110q-1 3 -2 7l-2 7q5 8 4 15.5t-6.5 13.5t-21.5 11l-6 1v19q-1 10 -3 16q-3 13 -11 21q10 11 16 22t6 21q0 13 -9.5 20t-26 6.5t-35.5 -8.5l-9 -3l-15 15q-13 11 -37 2q-21 -7 -45 -28.5
t-42.5 -47.5t-24.5 -47q-5 -24 7 -35l10 -8q-4 -11 -2 -23q1 -16 14.5 -28t30.5 -12q13 -30 41 -48t64 -19q38 -1 67.5 16t42.5 49q6 15 6 28q0 8 -3.5 12.5t-7.5 4.5zM74 78h-5q-12 0 -22 9t-11.5 22t5 22.5t18.5 11.5q4 1 7 1q8 -1 15 -7q9 -7 11 -21t-2.5 -25t-15.5 -13z
M57 154q-16 -3 -25 -15q-9 7 -10 10q-6 11 3 32q6 17 19 35q15 22 35 39.5t38.5 26.5t30.5 6q3 -1 16 -15v0l-14 -8q-17 -11 -30 -22q-21 -16 -37 -39t-26 -50zM217 85v1t-1 1l-7 -1h-17q-12 2 -22 5q1 5 4 5.5t9 -0.5h6q23 -2 45 5q20 5 34 16q3 -4 4 -11l1 -5h2q2 0 3 -1
q4 -2 3 -11q-3 -19 -18 -34q-9 -10 -20 -15q-7 -4 -14 -6q-27 -9 -51 -0.5t-33 29.5l-3 6q-3 14 0 29t13 25v0q2 2 2 3t-2 3l-3 5q-8 8 -11 14q-5 10 -3 22t10.5 19.5t18.5 6.5l19 -1q6 0 11.5 1.5t11.5 6.5h1q4 4 8 5h3q4 0 6 -2q7 -4 8 -23l1 -18q0 -5 1.5 -7t4.5 -3l7 -2
q13 -3 17 -8q3 -3 4 -6q0 -6 -6 -13t-19.5 -13t-30 -8.5t-30.5 -0.5h-6q-6 1 -10.5 -3.5t-5.5 -11.5t3 -12.5t13.5 -9t20.5 -3.5q22 0 42 8q17 8 24 18l1 2v0q-12 -9 -28 -14q-27 -10 -50 -6l-8 2q-10 4 -11 11q18 -5 35 -3q8 1 13 3v0zM115 216q17 20 37 30h1v0
q-3 -5 -4 -9h1v0q6 4 15.5 7.5t17.5 3.5v0v-1q-3 -2 -5 -5q-1 -1 0 -1q7 0 14.5 -2t13.5 -5v-0.5t-1 -0.5q-25 6 -49 0t-41 -18h-0.5t0.5 1z" />
    <glyph glyph-name="fi-brands-marriott-international" unicode="&#xea07;" 
d="M244 45h56l-94 225l-48 -23l33 -79l-15 -36l-59 141l-48 -22l38 -90q-10 -26 -24 -44q-10 -14 -21 -23q-7 -5 -10 -7q-11 -4 -22 -4h-7l-23 -49q12 -7 25 -7q17 0 31 10v0l4 3q5 4 10 10q8 9 15 22q9 16 17 37l13 33l42 -97h56l-29 68l15 37z" />
    <glyph glyph-name="fi-brands-mcdonalds" unicode="&#xea18;" 
d="M197 270q-18 0 -33.5 -22t-26.5 -61q-11 39 -26.5 61t-33.5 22q-21 0 -38.5 -32.5t-28 -87.5t-10.5 -120h34q0 61 6 112t15.5 81t21.5 30t21.5 -27.5t15.5 -75t6 -103.5h34q0 56 6 103.5t15.5 75t21.5 27.5t21.5 -30t15.5 -81t6 -112h34q0 65 -10 120t-28 87.5t-39 32.5
v0zM292 47h-1q-3 0 -5.5 -2.5t-2.5 -6t2.5 -6t5.5 -2.5v0q4 0 6.5 2.5t2.5 6t-2.5 6t-5.5 2.5zM291 31q-3 0 -5 2t-2 5.5t2 5.5t5 2t5 -2t2 -5.5t-2 -5.5t-5 -2zM291 39h-1v3h2q2 0 2 -1.5t-3 -1.5v0zM295 41q0 3 -3 3h-4v-10h2v4h1l3 -4h2l-3 4q2 0 2 3v0z" />
    <glyph glyph-name="fi-brands-media-encoder" unicode="&#xea1c;" 
d="M247 295h-194q-22 0 -37.5 -15.5t-15.5 -37.5v-184q0 -22 15.5 -37.5t37.5 -15.5h194q22 0 37.5 15.5t15.5 37.5v184q0 22 -15.5 37.5t-37.5 15.5zM171 92h-1h-25l-1 1v108l-28 -107q0 -2 -2 -2h-21q-2 0 -2 1l-26 108v0v-15l-2 -92q0 -2 -2 -2h-23v2l6 124q1 1 2 1h35
q1 0 2 -1l19 -78l3 -12l25 90q0 1 2 1h34q1 0 1 -1l5 -124q0 -1 -1 -2zM267 140q0 -2 -0.5 -3.5t-1.5 -1.5l-61 -1q1 -6 4.5 -11.5t10.5 -8t14 -2.5q12 0 23 4q1 1 1 -1v-20l-1 -1q-10 -6 -29 -5q-13 1 -21 4q-11 4 -18 12q-11 14 -11 35t12 36q7 7 16 11.5t20 4.5
q22 -1 32 -14t10 -30v-8zM224 170q-5 0 -9.5 -2.5t-7 -7.5t-3.5 -10h36v1q0 4 -1 8.5t-5.5 7.5t-9.5 3z" />
    <glyph glyph-name="fi-brands-medium" unicode="&#xea20;" 
d="M169 150q0 -23 -11.5 -42.5t-30.5 -31t-42 -11.5t-42.5 11.5t-31 31t-11.5 42.5t11.5 42.5t31 31t42.5 11.5t42 -11.5t30.5 -31t11.5 -42.5zM262 150q0 -22 -5.5 -40.5t-15.5 -29t-21.5 -10.5t-21 10.5t-15.5 29t-6 40.5t6 40.5t15.5 29t21 10.5t21.5 -10.5t15.5 -29
t5.5 -40.5zM300 150q0 -30 -4.5 -51t-10.5 -21t-10.5 21t-4.5 51t4.5 51t10.5 21t10.5 -21t4.5 -51z" />
    <glyph glyph-name="fi-brands-meta" unicode="&#xea4b;" 
d="M215 250q-17 0 -33 -13q-13 -9 -28 -29q-18 22 -34 32t-34 10q-23 0 -43 -18.5t-31.5 -49t-11.5 -63t14.5 -51t39.5 -18.5q13 0 24 5.5t23 20t27 41.5l22 39l25 -41q15 -26 26 -39.5t22 -19.5t25 -6q25 0 38.5 19t13.5 52.5t-11.5 63t-31 47.5t-42.5 18zM104 132
q-13 -21 -21 -31t-14 -14t-13 -4q-11 0 -17.5 9t-6.5 26q0 25 7.5 47.5t20 37t25.5 14.5t24 -8.5t26 -29.5zM249 83q-7 0 -13 4t-14 16q-7 9 -22 34l-18 29l-13 21q12 19 22.5 28t21.5 9q16 0 29.5 -14.5t21 -38.5t7.5 -53q0 -17 -5.5 -26t-16.5 -9z" />
    <glyph glyph-name="fi-brands-microsoft-edge" unicode="&#xea5b;" 
d="M151 300h1q28 0 54.5 -9.5t47 -27t32 -41.5t11.5 -50q0 -18 -10.5 -33.5t-29 -24.5t-40.5 -9q-17 0 -32 5q-4 2 -5 6.5t2 8.5q11 11 11 28q0 11 -7.5 28t-18.5 29q-25 26 -68 26q-26 0 -47 -8q-27 -10 -42 -33v0q9 30 29.5 54t49.5 37.5t62 13.5zM46 44q-21 21 -32 48
t-11 57q1 15 9 30q4 7 9 13q10 13 26 20.5t34 9.5q40 4 66 -12v0q16 -10 26 -28v0q-11 7 -23 7q-8 0 -20 -5q-29 -12 -43.5 -43t-7.5 -66q3 -17 11.5 -31.5t20.5 -25.5q7 -5 15 -9q9 -6 20 -9h1q-29 1 -55 12t-46 32zM280 69q-15 -25 -39 -42t-52 -23h-12q-26 1 -46 13
q-5 3 -9 7q-24 20 -30.5 52.5t6.5 61.5q6 11 13 20l7 6q-4 -9 -4 -18q0 -18 8.5 -34.5t23.5 -29.5t34.5 -19.5t41.5 -6.5q31 0 57 14v0q1 0 1.5 -0.5t-0.5 -0.5v0z" />
    <glyph glyph-name="fi-brands-microsoft-explorer" unicode="&#xea5c;" 
d="M300 143q-1 35 -17 66q21 46 8 69q-9 17 -35 20q-15 2 -28 -1q-30 -6 -56 -18q-50 0 -87 -26q-39 -28 -52 -80q23 26 43 42q16 12 29 17l-9 -8q-33 -33 -56 -69l-9 -15q-9 -15 -13 -23q-7 -13 -11 -25q-13 -48 -3 -70q9 -19 32 -20q18 -1 42 7q16 6 28 13q28 -14 60 -14
q44 0 79 25t49 65h-72q-12 -19 -31 -26t-38.5 -2t-32.5 20t-14 36h193q1 5 1 15v2zM280 214q-25 40 -66 55q14 7 29 10q21 4 32 -3t13 -20q2 -16 -8 -42zM26 22q-8 7 -7 25q2 21 17 52q8 -23 23.5 -41.5t35.5 -30.5q-16 -8 -32 -12q-24 -5 -37 7zM105 162q1 23 18.5 39.5
t43 16.5t43 -16t18.5 -40h-123z" />
    <glyph glyph-name="fi-brands-microsoft" unicode="&#xea5a;" 
d="M1 300h142v-143h-142v143zM158 300h141v-143h-141v143zM1 143h142v-143h-142v143zM158 143h141v-143h-141v143z" />
    <glyph glyph-name="fi-brands-mysql" unicode="&#xeaca;" 
d="M68 247q-4 0 -8 -1v-1q1 -2 4 -5l3 -3l4 -10l1 1q4 3 4 10l-2 4q-1 1 -4 3zM276 69q-24 1 -39 -5l-3 -1q-5 -1 -6 -4q1 -1 2 -4l2 -3q5 -8 10 -12l13 -10q4 -2 12.5 -6t12.5 -6l16 -12q2 -3 4 -3l-3 7l-6 6q-9 11 -22 20l-6 4q-7 4 -10 7q-6 4 -7 8v0q4 0 12 3h2
q3 1 9.5 2t10.5 2l10 2v2l-5 6q-3 4 -5 6q-18 15 -34 25q-4 3 -13 7l-11 5q-4 1 -5 2q-3 4 -7 12l-2 4q-8 15 -16 36l-4 8q-4 10 -7 15q-15 25 -33.5 42.5t-45.5 33.5q-7 4 -23 8l-3 1h-15q-2 1 -6 5l-4 3q-14 9 -26 11q-18 4 -24 -9q-3 -7 1 -16q3 -5 9 -13l5 -7
q7 -8 9 -13l5 -17q5 -14 8 -21q5 -8 8 -12l2 -2q3 -3 3 -5q-2 -3 -3 -10l-2 -6q-5 -17 -3.5 -36t9.5 -32q11 -17 22 -12q4 2 5.5 5.5t2.5 10.5l2 12q0 2 1 3l8 -17q9 -14 27 -28l5 -4q6 -7 10 -8v1h-1q0 1 -3 2l-1 2q-7 7 -11 12q-12 16 -23 37q-3 6 -8 18l-2 5q-1 3 -2 4
l-3 -4q-5 -6 -7 -10q-3 -7 -5 -24v-7h-1q-4 1 -6 4t-5 8v2q-5 11 -5.5 26.5t3.5 28.5l1 3q6 15 4.5 18t-5.5 6l-3 4q-4 7 -6.5 12.5t-6.5 17.5t-6.5 17t-8.5 14l-6 8q-5 6 -7.5 11t-1 7.5t3.5 3.5t6 0t7 -2q12 -5 20 -10l3 -3q4 -4 7 -4h4q3 -1 10 -1t10 -1q14 -5 29 -15
q41 -26 64 -69l21 -47q7 -17 13 -25q2 -3 15 -6l11 -4q7 -3 9 -4q7 -5 20 -14l4 -2q10 -6 10 -10v0z" />
    <glyph glyph-name="fi-brands-napster" unicode="&#xeacd;" 
d="M180 86q-13 -13 -30 -19q-17 6 -31 19h61zM93 206q-19 16 -42 22v-98q0 -27 13 -49.5t36 -35.5t50 -13t50 13t36 36t13 50v97q-24 -6 -42 -22q-26 18 -57 18t-57 -18zM93 235q27 14 57 14t57 -14q6 4 12 7q-14 13 -31.5 20t-37.5 7t-37.5 -7t-31.5 -20q6 -3 12 -7z
M57 251q18 19 42 30t51 11t51.5 -11t41.5 -30q15 4 30 4v-42q13 -7 20 -20t7 -27.5t-7 -27.5t-20 -20v-1q-3 -31 -20.5 -56t-44.5 -39t-58.5 -14t-58.5 14.5t-44 39.5t-20 55q-13 8 -20 21t-7 27.5t7 27.5t20 20v42q15 0 30 -4zM181 130q16 2 44 2v0v-1q-1 -8 -3 -13
q-3 -9 -13 -15q-6 -3 -15 -4h-37q3 14 8.5 22t15.5 9zM119 130q10 -1 15.5 -9t8.5 -22h-37q-9 1 -15 4q-10 6 -14 15q-2 5 -2 13v1h16q18 0 28 -2zM179 52q-13 -8 -29 -8t-29 8v2q1 2 2.5 4.5t3.5 3.5v0q11 -3 23 -3t23 3l1 -1q2 -2 3.5 -4.5t1.5 -4.5v0z" />
    <glyph glyph-name="fi-brands-nestle" unicode="&#xead1;" 
d="M8 257q-5 -2 -7 -6q-1 -2 -1 -5.5t0.5 -5.5t2.5 -4t3 -4q1 -5 5 -9t8 -4q1 0 4 -3l2 -2h-3q-3 0 -6 -1t-6 -3.5t-3 -3.5t-2.5 -3.5t-3.5 -4.5t-1 -5q0 -6 3.5 -9.5t8.5 -3.5t6.5 1t4.5 1q6 -1 11 3q2 2 3.5 2t4.5 1.5t5 4.5t1.5 4.5t-2.5 -0.5t-5 -3.5t-5 -1.5t-5 -2
q-5 -4 -10 -2q-2 1 -4 0t-4.5 -1t-4 2t-1.5 4.5t2 4.5t3 5q2 5 11 6q4 0 5.5 1.5t3.5 2t3.5 1t1 1.5t-3.5 1.5t-6 4t-4.5 3.5t-4.5 1.5t-4.5 4t-2 5t-2.5 4.5t-2 5.5t3.5 5.5t6 0.5t6.5 -1.5q8 -1 12 -8q1 -4 3 -4t5 -3t3 -5t0.5 -3t1.5 0t1.5 3t1.5 3.5t2 4.5q2 8 9 10
q3 1 5.5 3t6 1t4.5 -4t-0.5 -6t-1.5 -6q0 -5 -5 -8q-2 -1 -3.5 -4.5t-5 -5.5t-3.5 -3t3.5 -0.5t6 2t4 4t4 4.5t4 5t1.5 5.5t1 4.5q3 4 1.5 9t-6.5 8t-9 1.5t-6 -3.5t-5 -2.5t-6 -4.5t-4 -8l-1 -3l-1 2q0 2 -3 3t-4.5 4.5t-5.5 6t-7.5 2.5t-5.5 1q-4 3 -7 3q-2 0 -5 -1z
M160 257q-6 -2 -9.5 -5.5t-5.5 -8.5t-6 -12l-4 -7h4q5 0 5 -1l-2 -4q-2 -3 -2 -3.5t5.5 0.5t10 0.5t6.5 -1.5t3 -6l3 -15q1 -10 3.5 -16t7.5 -13q4 -5 11 -12t8.5 -7t0.5 1l-4 5q-7 8 -12 17t-7 16l-3 15q-1 10 -2 13.5t-4 5.5q-4 4 -13 3h-5l1 3q2 3 1.5 3.5t-3.5 0.5h-3
l2 3q2 4 4 7q4 12 16 12q7 0 11.5 -3t13.5 -13l8 -9l9 -8q5 -4 13 -12t13 -15q11 -15 23.5 -35.5t20.5 -38.5l9 -18q4 -11 3.5 -11t-10.5 7l-19 14q-25 19 -41 38t-29 44q-6 13 -6.5 13t0 -4t2.5 -10q14 -43 76 -91l6 -5l11 -32q1 -3 0 -3.5t-3.5 -0.5t-3.5 1t-5.5 13
t-4.5 13q-3 2 1 -13q2 -12 2 -14t-2.5 -4.5t-3.5 -2.5t-4 11l-6 24q-4 17 -5 17.5t-1 -1.5l8 -47q1 -8 2 -10.5t4 -3t8 5.5q3 3 5.5 4t7.5 1t7 1t2 3t-5.5 17l-5.5 15l5 -2q11 -8 15 -7h1l1 3q-1 12 -21 50t-39 64q-5 6 -13.5 14.5t-15.5 14.5t-14.5 14.5t-12 12t-10 5
t-8 1.5t-6.5 -1zM254 248q-2 -4 -9 -15l-12 -17l2 -3q2 -2 3 -1l12 18l1 -4q1 -6 7 -8q4 0 10.5 1.5t22.5 7.5q2 0 2 1v6l-9 -3q-14 -5 -20 -6t-7 1.5t1 10.5q1 5 3 10l2 4h-7zM159 241q-2 -1 -2 -4v-2q1 -1 2.5 -1t4.5 2q4 4 1 5.5t-4 1.5t-2 -2zM19 239l10 -9l6 -5
q1 0 2 1v1l-1 2q-3 4 -10 8.5t-7 1.5zM62 235q-4 -4 -6 -8l-2 -4q0 -1 1.5 -2t1.5 0l12 18q0 3 -7 -4zM98 237q-4 -2 -7 -6t-5 -11q-3 -12 -10 -19q-8 -10 -12 -16t-8 -15l-4 -8h8l3 8q7 13 16 25q7 7 9.5 11.5t4.5 14.5q2 5 4.5 7.5t6 2.5t8.5 -1.5t6.5 -1.5h1.5l-2 -4
l4 -4l-3 -2q-3 -2 -5.5 -5.5t-1.5 -5t4.5 2.5t10.5 7q4 1 4 1.5t-3.5 3t-3.5 3.5l5 8l-6 0.5t-10 2t-8.5 1.5h-6.5zM104 225q-1 -2 -1 -4l1 -1l2 -1q2 0 3.5 1.5t2 2.5t-1 2.5t-3.5 1t-3 -1.5zM294 219q-20 -8 -36 -16h-1q-7 -4 -8 -5t1 -3l1 -2l6 2q7 2 17.5 2.5t14.5 1.5
l4 1v5l-6 -1q-4 -1 -8 -1t-4 0.5t6 3.5l19 7v4v3zM47 214q-1 0 -1 -1l4 -6q3 -6 6 -11l2 -5l2 2q2 2 2 3.5t-6 10t-7 8.5zM32 204q-5 -1 -9 -3.5t-4 -3.5v-1l21 7q1 0 0 2t-8 -1zM110 203q-10 -3 -12 -18q-1 -6 -2 -9t-7 -10l-6 -9q-1 -2 0 -2l5 -3l9 14q6 8 6.5 10t0.5 6
q0 8 5 12.5t13 3.5q4 -1 6 0h2v-2q-1 -2 -1 -3t2 -1.5t2 -1t-2 -3.5q-8 -8 -8 -18q-1 -6 0 -10.5t2 -4t1 5.5q1 14 9 24q3 3 5.5 5t2 2.5t-4 2t-3.5 2.5t2 5l1 4l-4 -1q-6 -1 -16 0q-5 0 -8 -1zM116 193q-1 -2 -0.5 -4t1.5 -3t2 -0.5t3 2.5l1 2q1 1 0 2t-3.5 1.5t-3.5 -0.5z
M43 176q-8 -1 -16 -3.5t-10 -5t-1 -5.5v-5v-8.5t2 -4.5l3 -4l-1 -5q0 -6 1.5 -9.5t7.5 -10.5l4 -4l-12 -6q-14 -6 -17.5 -9.5t-3.5 -13.5v-7h2q3 0 4 1.5t1 6.5t1 7.5t3.5 4t18.5 8t19 6.5q9 1 22 -10l4 -4l2 2q2 1 2 2t-7 6.5t-13 8t-13 1.5q-5 -1 -7 0t-6 6l-5 7
q-1 2 -1 4v2l4 -2q2 -1 6.5 -2.5t6.5 -1.5h2l-1 2q0 2 -1 2l-3 2q-6 2 -11.5 7t-6 8t0 4t2 -0.5t6 -3.5t7.5 -3h5l5 2q5 2 9.5 1.5t12 -3t10 -3t3.5 1.5v1v1q-2 1 -7 4l-10 3q-10 4 -19 0q-4 -1 -6.5 -1t-8.5 2q-9 4 -8.5 7.5t5.5 5t16 3.5l2 1l1 2l1 2h-7zM139 173
q-1 -2 -1 -2.5t13 -0.5t13 1l-1 4h-23zM226 167q0 -2 3 -7l7 -10q8 -9 21.5 -20.5t12.5 -8.5l-13 15q-14 14 -21 23q-6 6 -8 7.5t-2 0.5zM172 151q-3 -1 -9 -1h-35l-4 -2q-4 -2 -4.5 -3t0.5 -2t2 -1l4 1q9 2 20 1t18 -0.5t13 3.5l3 2l-1 2v0q-1 1 -2.5 1t-4.5 -1zM101 146
q-8 -4 -12.5 -8t-4.5 -8q0 -7 10 -7.5t24 6.5l6 3q1 1 0 2.5t-2.5 1t-5.5 -1.5q-12 -6 -19 -6q-5 0 -6 1q-3 5 13 13l8 4q1 0 -1 1.5t-3 1.5t-7 -3zM180 139q-5 -6 -11 -11l-5 -5q-1 -1 -2 -1h-2l-2 2q-1 3 -1 6.5t-0.5 4t-5.5 -0.5q-12 -2 -23 -7l-8 -4l1 -5q1 0 5.5 2.5
t10.5 4.5t10 2l4 1v-3q1 -7 5 -9q2 -1 4.5 -1t4.5 1q5 3 16 16l7 10l-1 1.5t-1.5 1.5t-5.5 -6zM51 142l-5 -2.5t-0.5 -2t1.5 -1.5l12 1q1 0 2.5 -2t3 -4.5t1 -3t-7.5 -1.5h-8v-2q1 -2 2 -2.5t7 -0.5t7.5 0.5t2.5 -0.5l4 -3q8 -8 18 -9q9 0 18 3q5 2 6 3t0 3l-1 2l-4 -1
q-7 -4 -14 -4.5t-12 1.5q-7 4 -13 16q-3 6 -5 8t-3 2l-4 1q-4 0 -8 -1zM194 134q-9 -6 -19 -20q-5 -7 -8 -9q-6 -4 -13 -5q-2 0 -2 1l-2 3q-2 5 -6.5 8.5t-7.5 3.5t-8 -2t-15 -6.5t-10 -5.5t1 -3l2 -1l10 4q12 6 16.5 6.5t7 -1.5t4.5 -6l1 -3l-24 -2q-1 -1 -2 -2.5t-0.5 -2
t6.5 -0.5h12q20 2 32 8q4 2 7 2q7 -1 15 3q5 3 6 4.5t1 4v2.5l-4 -3q-6 -5 -13 -6q-3 0 -3 1t4 6q7 11 17 17l4 3l-5 3zM215 123q-6 -12 -16.5 -21.5t-20.5 -14.5q-4 -1 -7 -1l-43 -1q-4 -1 -10 -2v0q-8 -2 -11.5 -2t-7.5 1t-7 3l-2 2l6 5l-4 4l-26 -20v5q-1 5 -3.5 8.5
t-7.5 5.5l-3 1l-2 -1q-3 -1 -2.5 -1.5t3.5 -2t5.5 -3.5t3.5 -6t0 -8.5t-6 -7t-10 -2.5t-5 -4v-2h3q7 0 14 3q3 2 28 21q1 1 3 -1q8 -7 19 -7q5 0 12 2t11 2l22 1q19 0 24 0.5t12 4.5q10 6 19 15.5t15 19.5l1 4l-2 2l-3 1z" />
    <glyph glyph-name="fi-brands-netflix" unicode="&#xead2;" 
d="M232 117q5 0 12 -1v74h-12v-73zM28 145l-16 45h-12v-80l13 1v44l14 -42l14 2v75h-13v-45zM53 116q17 1 35 3v12l-22 -2v19h17v13h-17v17h22v12h-35v-74zM96 178h14v-58h12v58h14v12h-40v-12zM144 120h12v29h17v12h-17v17h23v12h-35v-70zM300 190h-14l-9 -21l-8 21h-14
l15 -38l-16 -37l13 -1l9 21l10 -23l14 -2l-16 42zM200 190h-13v-70l34 -2v12l-21 2v58z" />
    <glyph glyph-name="fi-brands-node-js" unicode="&#xeaf0;" 
d="M157 298q-7 4 -14 0l-118 -68q-7 -4 -7 -12v-136q0 -8 7 -12l118 -68q7 -4 14 0l118 68q7 4 7 12v136q0 8 -7 12z" />
    <glyph glyph-name="fi-brands-nvidia" unicode="&#xeb08;" 
d="M112 190v18h5q17 1 34 -6q13 -5 25 -14q9 -7 17 -15l5 -7l-6 -8q-7 -9 -16 -16q-11 -11 -23 -17q-14 -7 -27 -7q-7 0 -14 2v54q12 -1 19 -7q5 -5 13 -19l2 -3l26 21l-6 6q-8 8 -17 12q-13 6 -27 6q-4 1 -10 0zM112 249v-27l5 1q30 1 60 -14q20 -10 39 -27q9 -9 14 -15
l-9 -10q-11 -11 -23 -21q-17 -14 -34 -21q-20 -10 -38 -10q-7 0 -14 1v-16q7 -1 11 -1q34 0 66 16q23 12 54 39q3 -2 16 -9q16 -9 18 -12q-15 -13 -44 -25q-27 -11 -57 -18t-52 -7q-6 0 -12 1v-23h188v198h-188zM112 120v-14q-29 5 -46 31q-9 13 -13 25l7 6q10 8 21 13
q15 7 31 9v-15q-9 1 -18 -3q-6 -3 -12 -8l-4 -5l3 -8q4 -10 11 -17q8 -10 20 -14zM31 164q2 3 5 6q7 8 15 14q12 9 25 15q17 7 36 9v14q-21 -1 -43 -10q-18 -8 -36 -19q-12 -8 -24 -18l-9 -8l4 -9q5 -11 12 -22q9 -14 21 -26q14 -14 32 -23q20 -11 43 -13v16q-27 3 -48 22
q-15 14 -26 34q-5 10 -7 18v0z" />
    <glyph glyph-name="fi-brands-oracle" unicode="&#xeb2d;" 
d="M130 144h20l-11 17l-19 -30h-9l24 36q1 2 3 2.5t4 -1.5l2 -1l23 -36h-9l-4 6h-20zM221 137v32h-8v-35q0 -1 1 -2.5t3 -0.5h34l4 6h-34zM98 143q5 0 9 4t4 9t-4 9t-9 4h-33v-38h8v31h24q3 0 5 -1.5t2 -4.5t-2 -4.5t-5 -1.5h-21l23 -19h10l-14 12h3zM20 131h22
q8 0 13.5 5.5t5.5 13.5t-5.5 13.5t-13.5 5.5h-22q-8 0 -14 -5.5t-6 -13.5t5.5 -13.5t13.5 -5.5h1zM42 137h-22q-5 1 -8.5 4.5t-3.5 8.5t3.5 8.5t8.5 3.5h22q5 0 8.5 -3.5t4 -8.5t-3 -8.5t-8.5 -4.5h-1zM183 131h22l5 6h-27q-5 0 -9 3.5t-4 9t3.5 9t8.5 3.5h23l4 7h-26
q-8 0 -14 -5.5t-6 -13.5t5.5 -13.5t13.5 -5.5h1zM273 137q-4 0 -7.5 2.5t-4.5 6.5h32l4 7h-36q1 4 4.5 6.5t7.5 2.5h22l4 7h-26q-8 0 -13.5 -6t-5.5 -13.5t5.5 -13t13.5 -5.5h23l4 6h-27z" />
    <glyph glyph-name="fi-brands-patreon" unicode="&#xeb68;" 
d="M192 294q-29 0 -54 -14.5t-39.5 -39.5t-14.5 -54t14.5 -54t39.5 -39.5t54.5 -14.5t54 14.5t39 39.5t14.5 54t-14.5 54t-39 39.5t-54.5 14.5zM0 6h53v288h-53v-288z" />
    <glyph glyph-name="fi-brands-paypal" unicode="&#xeb71;" 
d="M275 157q-8 -39 -34 -58q-23 -16 -60 -16h-8q-4 0 -7.5 -3t-3.5 -7l-10 -63q-1 -4 -4.5 -7t-7.5 -3h-50q-3 0 -4.5 2.5t-1.5 5.5l4 25h-58q-4 1 -6 3.5t-1 5.5l39 247q1 5 4.5 8t8.5 3h93q52 0 71 -23q10 -11 13 -23.5t0 -29.5q-6 2 -10 4q-8 2 -15 3q-12 2 -24 2h-73
q-4 0 -7.5 -2.5t-3.5 -7.5l-17 -101q1 5 5 8t9 3h27q43 0 70 19q29 21 38 66l1 6q8 -4 13 -11q17 -19 10 -56z" />
    <glyph glyph-name="fi-brands-pfizer" unicode="&#xebda;" 
d="M246 58l-16 -58q-55 3 -109 21q-53 16 -87 40t-34 46q0 4 2 13l14 50q7 27 47 36.5t103 1.5l-16 -58q-42 5 -74 2.5t-51 -11.5q15 -18 49.5 -36t78.5 -31q47 -12 93 -16zM300 193q0 -5 -5 -24l-11 -39q-7 -27 -47 -36.5t-103 -1.5l16 58q42 -5 74 -2.5t51 11.5
q-15 18 -49.5 36t-78.5 31q-47 12 -93 16l16 58q55 -3 109 -21q53 -16 87 -40t34 -46z" />
    </font>
</defs>
</svg>
